<?xml version="1.0" encoding="UTF-8"?> <!-- Generator: Adobe Illustrator 16.0.0, SVG Export Plug-In . SVG Version: 6.00 Build 0) --> <svg xmlns="http://www.w3.org/2000/svg" xmlns:xlink="http://www.w3.org/1999/xlink" id="Layer_1" x="0px" y="0px" width="660px" height="95.33px" viewBox="0 127.335 660 95.33" xml:space="preserve"> <g> <g> <polyline fill="none" stroke="#000000" stroke-miterlimit="10" points="248,192.5 248,218 444,218 444,201.5 "></polyline> <g> <polygon points="447.973,204.698 447.246,205.375 443.916,201.792 440.585,205.375 439.859,204.698 443.916,200.335 "></polygon> </g> </g> </g> <rect x="5.751" y="133.335" fill="none" stroke="#FF5934" stroke-width="2.8347" stroke-miterlimit="10" width="647.498" height="59.667"></rect> <g> <g> <path d="M38.45,158.453c0-0.192-0.075-0.341-0.225-0.446c-0.149-0.105-0.335-0.189-0.556-0.252s-0.462-0.122-0.722-0.175 c-0.26-0.054-0.501-0.126-0.723-0.216c-0.221-0.09-0.407-0.211-0.556-0.364c-0.15-0.153-0.225-0.368-0.225-0.644 c0-0.228,0.05-0.423,0.149-0.585c0.099-0.162,0.229-0.295,0.391-0.4c0.162-0.105,0.351-0.183,0.567-0.234 c0.216-0.051,0.441-0.076,0.675-0.076c0.42,0,0.781,0.053,1.084,0.157c0.303,0.105,0.544,0.215,0.725,0.329l-0.287,0.567 c-0.198-0.108-0.411-0.211-0.642-0.311c-0.23-0.099-0.519-0.148-0.866-0.148c-0.132,0-0.262,0.014-0.391,0.041 c-0.128,0.027-0.245,0.068-0.35,0.122c-0.104,0.054-0.188,0.125-0.251,0.211c-0.063,0.087-0.094,0.194-0.094,0.32 c0,0.156,0.075,0.276,0.224,0.36s0.335,0.154,0.556,0.211c0.222,0.057,0.462,0.111,0.723,0.162s0.501,0.125,0.722,0.22 c0.222,0.096,0.407,0.225,0.557,0.387c0.149,0.162,0.224,0.381,0.224,0.657c0,0.414-0.164,0.756-0.491,1.026 s-0.817,0.405-1.471,0.405c-0.198,0-0.393-0.018-0.585-0.054c-0.192-0.036-0.372-0.084-0.54-0.144s-0.321-0.127-0.459-0.203 c-0.138-0.075-0.252-0.151-0.342-0.229l0.359-0.585c0.071,0.072,0.167,0.146,0.287,0.22c0.119,0.075,0.251,0.143,0.395,0.203 s0.298,0.108,0.462,0.144s0.331,0.054,0.498,0.054c0.162,0,0.313-0.014,0.453-0.041c0.141-0.027,0.265-0.069,0.373-0.126 s0.193-0.132,0.256-0.225C38.419,158.698,38.45,158.585,38.45,158.453z"></path> <path d="M40.988,153.368h1.503v4.788c0,0.366,0.061,0.625,0.184,0.774s0.305,0.225,0.545,0.225c0.167,0,0.328-0.03,0.481-0.09 c0.153-0.06,0.322-0.162,0.508-0.306l0.324,0.495c-0.097,0.084-0.202,0.159-0.316,0.225c-0.114,0.066-0.231,0.122-0.352,0.167 c-0.12,0.045-0.241,0.08-0.361,0.104c-0.12,0.024-0.231,0.036-0.334,0.036c-0.223,0-0.421-0.029-0.596-0.085 c-0.175-0.057-0.321-0.149-0.438-0.275c-0.118-0.126-0.206-0.292-0.267-0.5c-0.06-0.207-0.09-0.463-0.09-0.77v-4.185h-0.792 V153.368z"></path> <path d="M45.83,157.418c0-0.726,0.189-1.3,0.567-1.724c0.378-0.423,0.918-0.634,1.62-0.634c0.378,0,0.703,0.062,0.976,0.185 s0.5,0.29,0.68,0.5s0.313,0.459,0.4,0.747c0.087,0.288,0.131,0.597,0.131,0.927c0,0.36-0.048,0.686-0.144,0.977 c-0.096,0.291-0.237,0.539-0.423,0.743c-0.186,0.204-0.416,0.361-0.688,0.472s-0.583,0.167-0.931,0.167 c-0.372,0-0.696-0.062-0.972-0.185c-0.276-0.123-0.504-0.289-0.684-0.5c-0.18-0.21-0.313-0.459-0.4-0.747 C45.874,158.057,45.83,157.748,45.83,157.418z M46.577,157.418c0,0.21,0.025,0.42,0.077,0.63c0.051,0.21,0.133,0.399,0.247,0.567 c0.114,0.168,0.262,0.303,0.444,0.405c0.182,0.102,0.405,0.153,0.668,0.153c0.479,0,0.839-0.148,1.082-0.445 c0.242-0.297,0.363-0.733,0.363-1.31c0-0.216-0.025-0.428-0.077-0.634c-0.051-0.207-0.134-0.395-0.251-0.563 s-0.266-0.303-0.449-0.405s-0.405-0.153-0.668-0.153c-0.479,0-0.837,0.147-1.077,0.441S46.577,156.836,46.577,157.418z"></path> <path d="M50.996,155.168h1.071v-0.891l0.711-0.198v1.089h2.403v0.603h-2.403v2.124c0,0.438,0.106,0.762,0.318,0.972 s0.516,0.315,0.911,0.315c0.269,0,0.503-0.051,0.704-0.153c0.2-0.102,0.381-0.213,0.542-0.333l0.233,0.531 c-0.21,0.168-0.46,0.303-0.751,0.405s-0.589,0.153-0.896,0.153c-0.24,0-0.467-0.035-0.68-0.104s-0.4-0.176-0.563-0.32 c-0.162-0.144-0.291-0.328-0.387-0.553c-0.096-0.225-0.144-0.494-0.144-0.806v-2.232h-1.071V155.168z"></path> <path d="M62.012,156.518c0-0.51,0.045-0.968,0.135-1.373c0.09-0.405,0.225-0.747,0.406-1.026c0.18-0.279,0.409-0.492,0.686-0.639 c0.276-0.147,0.604-0.221,0.983-0.221c0.403,0,0.744,0.072,1.023,0.216c0.28,0.144,0.507,0.354,0.681,0.63s0.3,0.617,0.378,1.021 s0.117,0.869,0.117,1.391c0,0.51-0.045,0.967-0.135,1.373c-0.09,0.405-0.226,0.747-0.406,1.026s-0.409,0.492-0.685,0.639 c-0.277,0.147-0.604,0.22-0.983,0.22c-0.396,0-0.735-0.08-1.015-0.238c-0.279-0.159-0.508-0.383-0.685-0.67 c-0.178-0.288-0.305-0.632-0.383-1.031S62.012,156.998,62.012,156.518z M62.759,156.518c0,0.15,0.004,0.294,0.013,0.432 c0.009,0.138,0.02,0.273,0.032,0.405l2.682-2.43c-0.103-0.324-0.254-0.582-0.455-0.774c-0.201-0.192-0.473-0.288-0.814-0.288 c-0.534,0-0.911,0.221-1.13,0.662C62.868,154.965,62.759,155.63,62.759,156.518z M65.675,156.518c0-0.318-0.018-0.621-0.054-0.909 l-2.673,2.439c0.102,0.342,0.255,0.615,0.459,0.819c0.204,0.204,0.471,0.306,0.801,0.306c0.528,0,0.905-0.219,1.129-0.657 C65.562,158.078,65.675,157.412,65.675,156.518z"></path> <path d="M69.014,155.636c0-0.192,0.054-0.34,0.162-0.445c0.108-0.105,0.252-0.157,0.432-0.157c0.192,0,0.342,0.052,0.45,0.157 s0.162,0.253,0.162,0.445c0,0.174-0.054,0.318-0.162,0.432c-0.108,0.114-0.258,0.171-0.45,0.171c-0.18,0-0.324-0.057-0.432-0.171 C69.068,155.954,69.014,155.81,69.014,155.636z M69.014,159.173c0-0.192,0.054-0.34,0.162-0.445 c0.108-0.105,0.252-0.158,0.432-0.158c0.192,0,0.342,0.053,0.45,0.158s0.162,0.253,0.162,0.445c0,0.174-0.054,0.318-0.162,0.432 s-0.258,0.171-0.45,0.171c-0.18,0-0.324-0.057-0.432-0.171C69.068,159.491,69.014,159.347,69.014,159.173z"></path> <path d="M26.975,165.968h1.287v3.069c0,0.294,0.018,0.576,0.054,0.846h0.603v0.585h-1.206l-0.027-0.765h-0.036 c-0.156,0.258-0.362,0.468-0.619,0.63c-0.257,0.162-0.568,0.243-0.934,0.243c-0.275,0-0.51-0.031-0.704-0.094 c-0.195-0.063-0.354-0.172-0.48-0.329c-0.125-0.156-0.218-0.365-0.278-0.625c-0.06-0.261-0.089-0.586-0.089-0.977v-1.98h-0.603 v-0.603h1.314v2.439c0,0.246,0.01,0.467,0.031,0.662c0.021,0.195,0.064,0.36,0.129,0.495c0.065,0.135,0.162,0.237,0.29,0.306 c0.128,0.069,0.299,0.104,0.514,0.104c0.31,0,0.579-0.102,0.808-0.306c0.229-0.204,0.403-0.459,0.522-0.765v-2.331h-0.576V165.968 z"></path> <path d="M30.062,170.468v-0.603h1.566v-3.294h-1.566v-0.603h2.277v3.897h1.53v0.603H30.062z M31.376,164.69 c0-0.162,0.054-0.302,0.162-0.418c0.108-0.117,0.246-0.176,0.414-0.176c0.174,0,0.319,0.059,0.437,0.176 c0.117,0.117,0.175,0.256,0.175,0.418c0,0.156-0.058,0.288-0.175,0.396c-0.117,0.108-0.263,0.162-0.437,0.162 c-0.168,0-0.306-0.054-0.414-0.162C31.43,164.978,31.376,164.846,31.376,164.69z"></path> <path d="M35.354,167.543c0-0.054-0.001-0.125-0.004-0.212c-0.003-0.087-0.008-0.177-0.014-0.27 c-0.006-0.093-0.013-0.184-0.022-0.274c-0.009-0.09-0.02-0.168-0.031-0.234h-0.603v-0.585h1.206l0.081,0.729h0.045 c0.06-0.102,0.139-0.203,0.238-0.301c0.099-0.099,0.214-0.189,0.347-0.27c0.132-0.081,0.279-0.146,0.441-0.194 c0.162-0.048,0.333-0.072,0.513-0.072c0.276,0,0.52,0.03,0.733,0.09c0.213,0.06,0.39,0.167,0.531,0.319 c0.141,0.153,0.248,0.36,0.32,0.621c0.072,0.261,0.108,0.593,0.108,0.995v2.583h-0.711v-2.442c0-0.497-0.081-0.871-0.242-1.123 c-0.162-0.251-0.455-0.377-0.879-0.377c-0.156,0-0.307,0.031-0.453,0.094s-0.279,0.145-0.399,0.247 c-0.12,0.102-0.224,0.22-0.314,0.354s-0.155,0.277-0.197,0.427v2.819h-0.693V167.543z"></path> <path d="M40.196,165.968h1.071v-0.891l0.711-0.198v1.089h2.403v0.603h-2.403v2.124c0,0.438,0.106,0.762,0.318,0.972 s0.516,0.315,0.911,0.315c0.269,0,0.503-0.051,0.704-0.153c0.2-0.102,0.381-0.213,0.542-0.333l0.233,0.531 c-0.21,0.168-0.46,0.303-0.751,0.405s-0.589,0.153-0.896,0.153c-0.24,0-0.467-0.035-0.68-0.104s-0.4-0.176-0.563-0.32 c-0.162-0.144-0.291-0.328-0.387-0.553c-0.096-0.225-0.144-0.494-0.144-0.806v-2.232h-1.071V165.968z"></path> <path d="M49.826,165.761c0,0.552-0.262,1.167-0.785,1.845c-0.524,0.678-1.255,1.416-2.194,2.214h3.177v0.648h-4.005v-0.648 c0.114-0.108,0.27-0.249,0.468-0.423c0.198-0.174,0.411-0.368,0.639-0.581s0.46-0.442,0.697-0.688 c0.237-0.246,0.452-0.498,0.644-0.756c0.192-0.258,0.348-0.516,0.468-0.774c0.12-0.258,0.18-0.507,0.18-0.747 c0-0.36-0.094-0.644-0.283-0.85c-0.189-0.207-0.473-0.311-0.851-0.311c-0.324,0-0.597,0.036-0.819,0.108 c-0.222,0.072-0.423,0.177-0.603,0.315l-0.306-0.495c0.271-0.192,0.558-0.333,0.862-0.423c0.304-0.09,0.636-0.135,0.997-0.135 c0.565,0,0.993,0.153,1.281,0.459C49.682,164.825,49.826,165.239,49.826,165.761z"></path> <path d="M53.021,169.946c0.228,0,0.438-0.028,0.63-0.085c0.192-0.057,0.355-0.144,0.49-0.261c0.135-0.117,0.24-0.262,0.315-0.437 c0.075-0.174,0.113-0.378,0.113-0.612c0-0.432-0.155-0.761-0.463-0.985c-0.309-0.225-0.731-0.338-1.265-0.338l-0.846,0.045v-3.105 h3.096v0.648H52.67v1.827l0.452-0.018c0.668,0,1.195,0.162,1.58,0.486c0.385,0.324,0.578,0.786,0.578,1.386 c0,0.336-0.059,0.633-0.176,0.891c-0.117,0.258-0.278,0.476-0.483,0.652c-0.204,0.177-0.446,0.311-0.726,0.401 c-0.28,0.09-0.585,0.135-0.916,0.135c-0.181,0-0.352-0.013-0.514-0.041c-0.163-0.027-0.31-0.06-0.442-0.099 c-0.132-0.039-0.248-0.081-0.347-0.126c-0.099-0.045-0.17-0.085-0.212-0.121l0.288-0.585c0.102,0.06,0.258,0.132,0.468,0.216 S52.697,169.946,53.021,169.946z"></path> <path d="M60.977,168.569c0,0.258-0.046,0.507-0.14,0.747c-0.093,0.24-0.23,0.453-0.41,0.639c-0.181,0.186-0.403,0.336-0.667,0.45 s-0.571,0.171-0.92,0.171c-0.325,0-0.62-0.051-0.884-0.153c-0.265-0.102-0.493-0.248-0.686-0.437s-0.341-0.421-0.447-0.698 c-0.105-0.276-0.158-0.585-0.158-0.927c0-0.564,0.083-1.098,0.248-1.602c0.166-0.504,0.397-0.948,0.695-1.332 c0.298-0.384,0.653-0.696,1.065-0.936c0.412-0.24,0.865-0.384,1.358-0.432l0.126,0.576c-0.378,0.048-0.725,0.159-1.04,0.333 c-0.315,0.174-0.589,0.39-0.823,0.648c-0.234,0.258-0.425,0.543-0.572,0.855s-0.242,0.63-0.283,0.954 c0.048-0.078,0.118-0.159,0.211-0.243c0.093-0.084,0.204-0.157,0.333-0.22c0.129-0.063,0.273-0.116,0.432-0.158 c0.159-0.042,0.332-0.063,0.518-0.063c0.318,0,0.603,0.043,0.855,0.13c0.252,0.087,0.467,0.21,0.644,0.369 c0.177,0.159,0.312,0.351,0.405,0.576C60.93,168.042,60.977,168.293,60.977,168.569z M60.23,168.641 c0-0.42-0.117-0.741-0.35-0.963c-0.233-0.222-0.592-0.333-1.077-0.333c-0.173,0-0.335,0.021-0.484,0.063 c-0.15,0.042-0.284,0.098-0.404,0.167c-0.12,0.069-0.224,0.148-0.314,0.239c-0.09,0.09-0.159,0.18-0.207,0.27 c-0.012,0.084-0.018,0.15-0.018,0.198c0,0.048,0,0.105,0,0.171c0,0.18,0.03,0.362,0.09,0.544c0.06,0.183,0.151,0.347,0.274,0.491 s0.276,0.261,0.462,0.351c0.185,0.09,0.404,0.135,0.655,0.135c0.204,0,0.389-0.036,0.556-0.108 c0.167-0.072,0.313-0.168,0.435-0.288c0.123-0.12,0.217-0.261,0.283-0.423S60.23,168.821,60.23,168.641z"></path> <path d="M67.709,170.468v-0.603h1.071v-3.294h-1.071v-0.603h1.071v-0.252c0-0.564,0.147-0.972,0.441-1.224 c0.294-0.252,0.714-0.378,1.26-0.378c0.198,0,0.375,0.012,0.531,0.036c0.156,0.024,0.324,0.072,0.504,0.144l-0.162,0.585 c-0.155-0.066-0.305-0.109-0.448-0.131c-0.144-0.021-0.275-0.031-0.394-0.031c-0.395,0-0.664,0.098-0.807,0.292 c-0.144,0.195-0.215,0.515-0.215,0.958h1.863v0.603h-1.863v3.294h1.863v0.603H67.709z"></path> <path d="M72.83,168.218c0-0.726,0.189-1.3,0.567-1.724c0.378-0.423,0.918-0.634,1.62-0.634c0.378,0,0.703,0.062,0.976,0.185 s0.5,0.29,0.68,0.5s0.313,0.459,0.4,0.747c0.087,0.288,0.131,0.597,0.131,0.927c0,0.36-0.048,0.686-0.144,0.977 c-0.096,0.291-0.237,0.539-0.423,0.743c-0.186,0.204-0.416,0.361-0.688,0.472s-0.583,0.167-0.931,0.167 c-0.372,0-0.696-0.062-0.972-0.185c-0.276-0.123-0.504-0.289-0.684-0.5c-0.18-0.21-0.313-0.459-0.4-0.747 C72.873,168.857,72.83,168.548,72.83,168.218z M73.576,168.218c0,0.21,0.025,0.42,0.077,0.63c0.051,0.21,0.133,0.399,0.247,0.567 c0.114,0.168,0.262,0.303,0.444,0.405c0.182,0.102,0.405,0.153,0.668,0.153c0.479,0,0.839-0.148,1.082-0.445 c0.242-0.297,0.363-0.733,0.363-1.31c0-0.216-0.025-0.428-0.077-0.634c-0.051-0.207-0.134-0.395-0.251-0.563 s-0.266-0.303-0.449-0.405s-0.405-0.153-0.668-0.153c-0.479,0-0.837,0.147-1.077,0.441S73.576,167.636,73.576,168.218z"></path> <path d="M78.23,168.218c0-0.726,0.189-1.3,0.567-1.724c0.378-0.423,0.918-0.634,1.62-0.634c0.378,0,0.703,0.062,0.976,0.185 s0.5,0.29,0.68,0.5s0.313,0.459,0.4,0.747c0.087,0.288,0.131,0.597,0.131,0.927c0,0.36-0.048,0.686-0.144,0.977 c-0.096,0.291-0.237,0.539-0.423,0.743c-0.186,0.204-0.416,0.361-0.688,0.472s-0.583,0.167-0.931,0.167 c-0.372,0-0.696-0.062-0.972-0.185c-0.276-0.123-0.504-0.289-0.684-0.5c-0.18-0.21-0.313-0.459-0.4-0.747 C78.273,168.857,78.23,168.548,78.23,168.218z M78.976,168.218c0,0.21,0.025,0.42,0.077,0.63c0.051,0.21,0.133,0.399,0.247,0.567 c0.114,0.168,0.262,0.303,0.444,0.405c0.182,0.102,0.405,0.153,0.668,0.153c0.479,0,0.839-0.148,1.082-0.445 c0.242-0.297,0.363-0.733,0.363-1.31c0-0.216-0.025-0.428-0.077-0.634c-0.051-0.207-0.134-0.395-0.251-0.563 s-0.266-0.303-0.449-0.405s-0.405-0.153-0.668-0.153c-0.479,0-0.837,0.147-1.077,0.441S78.976,167.636,78.976,168.218z"></path> </g> </g> <g> <g> <path d="M133.45,158.453c0-0.192-0.075-0.341-0.225-0.446c-0.149-0.105-0.335-0.189-0.556-0.252s-0.462-0.122-0.722-0.175 c-0.26-0.054-0.501-0.126-0.723-0.216c-0.221-0.09-0.407-0.211-0.556-0.364c-0.15-0.153-0.225-0.368-0.225-0.644 c0-0.228,0.05-0.423,0.149-0.585c0.099-0.162,0.229-0.295,0.391-0.4c0.162-0.105,0.351-0.183,0.567-0.234 c0.216-0.051,0.441-0.076,0.675-0.076c0.42,0,0.781,0.053,1.084,0.157c0.303,0.105,0.544,0.215,0.725,0.329l-0.287,0.567 c-0.198-0.108-0.411-0.211-0.642-0.311c-0.23-0.099-0.519-0.148-0.866-0.148c-0.132,0-0.262,0.014-0.391,0.041 c-0.128,0.027-0.245,0.068-0.35,0.122c-0.104,0.054-0.188,0.125-0.251,0.211c-0.063,0.087-0.094,0.194-0.094,0.32 c0,0.156,0.075,0.276,0.224,0.36s0.335,0.154,0.556,0.211c0.222,0.057,0.462,0.111,0.723,0.162s0.501,0.125,0.722,0.22 c0.222,0.096,0.407,0.225,0.557,0.387c0.149,0.162,0.224,0.381,0.224,0.657c0,0.414-0.164,0.756-0.491,1.026 s-0.817,0.405-1.471,0.405c-0.198,0-0.393-0.018-0.585-0.054c-0.192-0.036-0.372-0.084-0.54-0.144s-0.321-0.127-0.459-0.203 c-0.138-0.075-0.252-0.151-0.342-0.229l0.359-0.585c0.071,0.072,0.167,0.146,0.287,0.22c0.119,0.075,0.251,0.143,0.395,0.203 s0.298,0.108,0.462,0.144s0.331,0.054,0.498,0.054c0.162,0,0.313-0.014,0.453-0.041c0.141-0.027,0.265-0.069,0.373-0.126 s0.193-0.132,0.256-0.225C133.419,158.698,133.45,158.585,133.45,158.453z"></path> <path d="M135.988,153.368h1.503v4.788c0,0.366,0.061,0.625,0.184,0.774s0.305,0.225,0.545,0.225c0.167,0,0.328-0.03,0.481-0.09 c0.153-0.06,0.322-0.162,0.508-0.306l0.324,0.495c-0.097,0.084-0.202,0.159-0.316,0.225c-0.114,0.066-0.231,0.122-0.352,0.167 c-0.12,0.045-0.241,0.08-0.361,0.104c-0.12,0.024-0.231,0.036-0.334,0.036c-0.223,0-0.421-0.029-0.596-0.085 c-0.175-0.057-0.321-0.149-0.438-0.275c-0.118-0.126-0.206-0.292-0.267-0.5c-0.06-0.207-0.09-0.463-0.09-0.77v-4.185h-0.792 V153.368z"></path> <path d="M140.83,157.418c0-0.726,0.189-1.3,0.567-1.724c0.378-0.423,0.918-0.634,1.62-0.634c0.378,0,0.703,0.062,0.976,0.185 s0.5,0.29,0.68,0.5s0.313,0.459,0.4,0.747c0.087,0.288,0.131,0.597,0.131,0.927c0,0.36-0.048,0.686-0.144,0.977 c-0.096,0.291-0.237,0.539-0.423,0.743c-0.186,0.204-0.416,0.361-0.688,0.472s-0.583,0.167-0.931,0.167 c-0.372,0-0.696-0.062-0.972-0.185c-0.276-0.123-0.504-0.289-0.684-0.5c-0.18-0.21-0.313-0.459-0.4-0.747 C140.874,158.057,140.83,157.748,140.83,157.418z M141.577,157.418c0,0.21,0.025,0.42,0.077,0.63 c0.051,0.21,0.133,0.399,0.247,0.567c0.114,0.168,0.262,0.303,0.444,0.405c0.182,0.102,0.405,0.153,0.668,0.153 c0.479,0,0.839-0.148,1.082-0.445c0.242-0.297,0.363-0.733,0.363-1.31c0-0.216-0.025-0.428-0.077-0.634 c-0.051-0.207-0.134-0.395-0.251-0.563s-0.266-0.303-0.449-0.405s-0.405-0.153-0.668-0.153c-0.479,0-0.837,0.147-1.077,0.441 S141.577,156.836,141.577,157.418z"></path> <path d="M145.996,155.168h1.071v-0.891l0.711-0.198v1.089h2.403v0.603h-2.403v2.124c0,0.438,0.106,0.762,0.318,0.972 s0.516,0.315,0.911,0.315c0.269,0,0.503-0.051,0.704-0.153c0.2-0.102,0.381-0.213,0.542-0.333l0.233,0.531 c-0.21,0.168-0.46,0.303-0.751,0.405s-0.589,0.153-0.896,0.153c-0.24,0-0.467-0.035-0.68-0.104s-0.4-0.176-0.563-0.32 c-0.162-0.144-0.291-0.328-0.387-0.553c-0.096-0.225-0.144-0.494-0.144-0.806v-2.232h-1.071V155.168z"></path> <path d="M157.66,159.02h1.413v-4.734l-1.44,1.008l-0.351-0.513l1.98-1.413h0.504v5.652h1.386v0.648h-3.492V159.02z"></path> <path d="M164.014,155.636c0-0.192,0.054-0.34,0.162-0.445c0.108-0.105,0.252-0.157,0.432-0.157c0.192,0,0.342,0.052,0.45,0.157 s0.162,0.253,0.162,0.445c0,0.174-0.054,0.318-0.162,0.432c-0.108,0.114-0.258,0.171-0.45,0.171c-0.18,0-0.324-0.057-0.432-0.171 C164.068,155.954,164.014,155.81,164.014,155.636z M164.014,159.173c0-0.192,0.054-0.34,0.162-0.445 c0.108-0.105,0.252-0.158,0.432-0.158c0.192,0,0.342,0.053,0.45,0.158s0.162,0.253,0.162,0.445c0,0.174-0.054,0.318-0.162,0.432 s-0.258,0.171-0.45,0.171c-0.18,0-0.324-0.057-0.432-0.171C164.068,159.491,164.014,159.347,164.014,159.173z"></path> <path d="M121.975,165.968h1.287v3.069c0,0.294,0.018,0.576,0.054,0.846h0.603v0.585h-1.206l-0.027-0.765h-0.036 c-0.156,0.258-0.362,0.468-0.619,0.63c-0.257,0.162-0.568,0.243-0.934,0.243c-0.275,0-0.51-0.031-0.704-0.094 c-0.195-0.063-0.354-0.172-0.48-0.329c-0.125-0.156-0.218-0.365-0.278-0.625c-0.06-0.261-0.089-0.586-0.089-0.977v-1.98h-0.603 v-0.603h1.314v2.439c0,0.246,0.01,0.467,0.031,0.662c0.021,0.195,0.064,0.36,0.129,0.495c0.065,0.135,0.162,0.237,0.29,0.306 c0.128,0.069,0.299,0.104,0.514,0.104c0.31,0,0.579-0.102,0.808-0.306c0.229-0.204,0.403-0.459,0.522-0.765v-2.331h-0.576V165.968 z"></path> <path d="M125.062,170.468v-0.603h1.566v-3.294h-1.566v-0.603h2.277v3.897h1.53v0.603H125.062z M126.376,164.69 c0-0.162,0.054-0.302,0.162-0.418c0.108-0.117,0.246-0.176,0.414-0.176c0.174,0,0.319,0.059,0.437,0.176 c0.117,0.117,0.175,0.256,0.175,0.418c0,0.156-0.058,0.288-0.175,0.396c-0.117,0.108-0.263,0.162-0.437,0.162 c-0.168,0-0.306-0.054-0.414-0.162C126.43,164.978,126.376,164.846,126.376,164.69z"></path> <path d="M130.354,167.543c0-0.054-0.001-0.125-0.004-0.212c-0.003-0.087-0.008-0.177-0.014-0.27 c-0.006-0.093-0.013-0.184-0.022-0.274c-0.009-0.09-0.02-0.168-0.031-0.234h-0.603v-0.585h1.206l0.081,0.729h0.045 c0.06-0.102,0.139-0.203,0.238-0.301c0.099-0.099,0.214-0.189,0.347-0.27c0.132-0.081,0.279-0.146,0.441-0.194 c0.162-0.048,0.333-0.072,0.513-0.072c0.276,0,0.52,0.03,0.733,0.09c0.213,0.06,0.39,0.167,0.531,0.319 c0.141,0.153,0.248,0.36,0.32,0.621c0.072,0.261,0.108,0.593,0.108,0.995v2.583h-0.711v-2.442c0-0.497-0.081-0.871-0.242-1.123 c-0.162-0.251-0.455-0.377-0.879-0.377c-0.156,0-0.307,0.031-0.453,0.094s-0.279,0.145-0.399,0.247 c-0.12,0.102-0.224,0.22-0.314,0.354s-0.155,0.277-0.197,0.427v2.819h-0.693V167.543z"></path> <path d="M135.196,165.968h1.071v-0.891l0.711-0.198v1.089h2.403v0.603h-2.403v2.124c0,0.438,0.106,0.762,0.318,0.972 s0.516,0.315,0.911,0.315c0.269,0,0.503-0.051,0.704-0.153c0.2-0.102,0.381-0.213,0.542-0.333l0.233,0.531 c-0.21,0.168-0.46,0.303-0.751,0.405s-0.589,0.153-0.896,0.153c-0.24,0-0.467-0.035-0.68-0.104s-0.4-0.176-0.563-0.32 c-0.162-0.144-0.291-0.328-0.387-0.553c-0.096-0.225-0.144-0.494-0.144-0.806v-2.232h-1.071V165.968z"></path> <path d="M144.826,165.761c0,0.552-0.262,1.167-0.785,1.845c-0.524,0.678-1.255,1.416-2.194,2.214h3.177v0.648h-4.005v-0.648 c0.114-0.108,0.27-0.249,0.468-0.423c0.198-0.174,0.411-0.368,0.639-0.581s0.46-0.442,0.697-0.688 c0.237-0.246,0.452-0.498,0.644-0.756c0.192-0.258,0.348-0.516,0.468-0.774c0.12-0.258,0.18-0.507,0.18-0.747 c0-0.36-0.094-0.644-0.283-0.85c-0.189-0.207-0.473-0.311-0.851-0.311c-0.324,0-0.597,0.036-0.819,0.108 c-0.222,0.072-0.423,0.177-0.603,0.315l-0.306-0.495c0.271-0.192,0.558-0.333,0.862-0.423c0.304-0.09,0.636-0.135,0.997-0.135 c0.565,0,0.993,0.153,1.281,0.459C144.682,164.825,144.826,165.239,144.826,165.761z"></path> <path d="M148.021,169.946c0.228,0,0.438-0.028,0.63-0.085c0.192-0.057,0.355-0.144,0.49-0.261c0.135-0.117,0.24-0.262,0.315-0.437 c0.075-0.174,0.113-0.378,0.113-0.612c0-0.432-0.155-0.761-0.463-0.985c-0.309-0.225-0.731-0.338-1.265-0.338l-0.846,0.045v-3.105 h3.096v0.648h-2.421v1.827l0.452-0.018c0.668,0,1.195,0.162,1.58,0.486c0.385,0.324,0.578,0.786,0.578,1.386 c0,0.336-0.059,0.633-0.176,0.891c-0.117,0.258-0.278,0.476-0.483,0.652c-0.204,0.177-0.446,0.311-0.726,0.401 c-0.28,0.09-0.585,0.135-0.916,0.135c-0.181,0-0.352-0.013-0.514-0.041c-0.163-0.027-0.31-0.06-0.442-0.099 c-0.132-0.039-0.248-0.081-0.347-0.126c-0.099-0.045-0.17-0.085-0.212-0.121l0.288-0.585c0.102,0.06,0.258,0.132,0.468,0.216 S147.697,169.946,148.021,169.946z"></path> <path d="M155.977,168.569c0,0.258-0.046,0.507-0.14,0.747c-0.093,0.24-0.23,0.453-0.41,0.639c-0.181,0.186-0.403,0.336-0.667,0.45 s-0.571,0.171-0.92,0.171c-0.325,0-0.62-0.051-0.884-0.153c-0.265-0.102-0.493-0.248-0.686-0.437s-0.341-0.421-0.447-0.698 c-0.105-0.276-0.158-0.585-0.158-0.927c0-0.564,0.083-1.098,0.248-1.602c0.166-0.504,0.397-0.948,0.695-1.332 c0.298-0.384,0.653-0.696,1.065-0.936c0.412-0.24,0.865-0.384,1.358-0.432l0.126,0.576c-0.378,0.048-0.725,0.159-1.04,0.333 c-0.315,0.174-0.589,0.39-0.823,0.648c-0.234,0.258-0.425,0.543-0.572,0.855s-0.242,0.63-0.283,0.954 c0.048-0.078,0.118-0.159,0.211-0.243c0.093-0.084,0.204-0.157,0.333-0.22c0.129-0.063,0.273-0.116,0.432-0.158 c0.159-0.042,0.332-0.063,0.518-0.063c0.318,0,0.603,0.043,0.855,0.13c0.252,0.087,0.467,0.21,0.644,0.369 c0.177,0.159,0.312,0.351,0.405,0.576C155.93,168.042,155.977,168.293,155.977,168.569z M155.23,168.641 c0-0.42-0.117-0.741-0.35-0.963c-0.233-0.222-0.592-0.333-1.077-0.333c-0.173,0-0.335,0.021-0.484,0.063 c-0.15,0.042-0.284,0.098-0.404,0.167c-0.12,0.069-0.224,0.148-0.314,0.239c-0.09,0.09-0.159,0.18-0.207,0.27 c-0.012,0.084-0.018,0.15-0.018,0.198c0,0.048,0,0.105,0,0.171c0,0.18,0.03,0.362,0.09,0.544c0.06,0.183,0.151,0.347,0.274,0.491 s0.276,0.261,0.462,0.351c0.185,0.09,0.404,0.135,0.655,0.135c0.204,0,0.389-0.036,0.556-0.108 c0.167-0.072,0.313-0.168,0.435-0.288c0.123-0.12,0.217-0.261,0.283-0.423S155.23,168.821,155.23,168.641z"></path> <path d="M161.935,164.168h1.44v2.313h0.045c0.156-0.198,0.357-0.351,0.603-0.459c0.246-0.108,0.513-0.162,0.801-0.162 c1.32,0,1.98,0.762,1.98,2.286c0,0.774-0.213,1.366-0.639,1.777c-0.426,0.411-1.032,0.616-1.818,0.616 c-0.372,0-0.708-0.036-1.008-0.108c-0.3-0.072-0.519-0.156-0.657-0.252v-5.409h-0.747V164.168z M164.734,166.463 c-0.36,0-0.651,0.102-0.873,0.306c-0.222,0.204-0.384,0.492-0.486,0.864v2.07c0.138,0.072,0.303,0.129,0.495,0.171 c0.192,0.042,0.393,0.063,0.603,0.063c0.24,0,0.458-0.035,0.652-0.104c0.195-0.069,0.361-0.177,0.5-0.324s0.245-0.334,0.319-0.563 c0.075-0.228,0.113-0.498,0.113-0.81c0-0.228-0.024-0.444-0.072-0.648s-0.125-0.382-0.229-0.536 c-0.105-0.153-0.242-0.273-0.409-0.36C165.177,166.506,164.974,166.463,164.734,166.463z"></path> <path d="M168.289,166.319c0.258-0.15,0.549-0.258,0.873-0.324c0.324-0.066,0.642-0.099,0.954-0.099 c0.306,0,0.557,0.048,0.751,0.144c0.195,0.096,0.348,0.221,0.459,0.374c0.111,0.153,0.186,0.327,0.225,0.522 c0.039,0.195,0.059,0.392,0.059,0.59c0,0.228-0.006,0.471-0.018,0.729s-0.021,0.516-0.027,0.774c0,0.3,0.018,0.585,0.054,0.855 h0.603v0.585h-1.188l-0.08-0.675h-0.045c-0.036,0.054-0.09,0.123-0.163,0.207s-0.167,0.167-0.284,0.247 c-0.117,0.081-0.26,0.152-0.429,0.212c-0.168,0.06-0.367,0.09-0.596,0.09c-0.445,0-0.797-0.114-1.056-0.342 c-0.259-0.228-0.388-0.54-0.388-0.936c0-0.306,0.068-0.561,0.203-0.765c0.136-0.204,0.33-0.36,0.583-0.468 c0.253-0.108,0.558-0.171,0.916-0.189c0.358-0.018,0.76,0.006,1.206,0.072c0.03-0.276,0.034-0.505,0.014-0.688 c-0.021-0.183-0.069-0.329-0.145-0.437c-0.076-0.108-0.181-0.185-0.316-0.229c-0.135-0.045-0.302-0.068-0.501-0.068 c-0.271,0-0.53,0.038-0.777,0.113c-0.247,0.075-0.466,0.151-0.659,0.229L168.289,166.319z M169.621,169.946 c0.167,0,0.324-0.027,0.468-0.081s0.27-0.123,0.378-0.207s0.198-0.175,0.27-0.274c0.072-0.099,0.126-0.193,0.162-0.284v-0.63 c-0.312-0.054-0.6-0.081-0.864-0.081c-0.264,0-0.492,0.029-0.684,0.085c-0.192,0.057-0.342,0.146-0.45,0.266 s-0.162,0.276-0.162,0.468c0,0.198,0.067,0.37,0.203,0.517C169.076,169.873,169.302,169.946,169.621,169.946z"></path> <path d="M173.311,170.468v-0.603h1.215v-3.294h-1.215v-0.603h1.683l0.144,0.585h0.045c0.204-0.186,0.432-0.345,0.684-0.477 c0.252-0.132,0.552-0.198,0.9-0.198c0.204,0,0.368,0.039,0.491,0.117c0.123,0.078,0.219,0.192,0.288,0.342 c0.069,0.15,0.115,0.332,0.139,0.544s0.036,0.455,0.036,0.725l-0.63,0.009c0-0.381-0.038-0.661-0.112-0.839 c-0.075-0.179-0.212-0.268-0.41-0.268c-0.186,0-0.354,0.027-0.504,0.081c-0.15,0.054-0.281,0.12-0.392,0.197 c-0.111,0.078-0.206,0.155-0.284,0.233c-0.078,0.078-0.135,0.144-0.171,0.197v2.648h1.728v0.603H173.311z"></path> </g> </g> <g> <g> <path d="M326.784,158.453c0-0.192-0.075-0.341-0.225-0.446c-0.149-0.105-0.335-0.189-0.556-0.252s-0.462-0.122-0.722-0.175 c-0.26-0.054-0.501-0.126-0.723-0.216c-0.221-0.09-0.407-0.211-0.556-0.364c-0.15-0.153-0.225-0.368-0.225-0.644 c0-0.228,0.05-0.423,0.149-0.585c0.099-0.162,0.229-0.295,0.391-0.4c0.162-0.105,0.351-0.183,0.567-0.234 c0.216-0.051,0.441-0.076,0.675-0.076c0.42,0,0.781,0.053,1.084,0.157c0.303,0.105,0.544,0.215,0.725,0.329l-0.287,0.567 c-0.198-0.108-0.411-0.211-0.642-0.311c-0.23-0.099-0.519-0.148-0.866-0.148c-0.132,0-0.262,0.014-0.391,0.041 c-0.128,0.027-0.245,0.068-0.35,0.122c-0.104,0.054-0.188,0.125-0.251,0.211c-0.063,0.087-0.094,0.194-0.094,0.32 c0,0.156,0.075,0.276,0.224,0.36s0.335,0.154,0.556,0.211c0.222,0.057,0.462,0.111,0.723,0.162s0.501,0.125,0.722,0.22 c0.222,0.096,0.407,0.225,0.557,0.387c0.149,0.162,0.224,0.381,0.224,0.657c0,0.414-0.164,0.756-0.491,1.026 s-0.817,0.405-1.471,0.405c-0.198,0-0.393-0.018-0.585-0.054c-0.192-0.036-0.372-0.084-0.54-0.144s-0.321-0.127-0.459-0.203 c-0.138-0.075-0.252-0.151-0.342-0.229l0.359-0.585c0.071,0.072,0.167,0.146,0.287,0.22c0.119,0.075,0.251,0.143,0.395,0.203 s0.298,0.108,0.462,0.144s0.331,0.054,0.498,0.054c0.162,0,0.313-0.014,0.453-0.041c0.141-0.027,0.265-0.069,0.373-0.126 s0.193-0.132,0.256-0.225C326.753,158.698,326.784,158.585,326.784,158.453z"></path> <path d="M329.322,153.368h1.503v4.788c0,0.366,0.062,0.625,0.185,0.774s0.305,0.225,0.545,0.225c0.167,0,0.328-0.03,0.48-0.09 c0.153-0.06,0.322-0.162,0.509-0.306l0.324,0.495c-0.097,0.084-0.202,0.159-0.316,0.225s-0.231,0.122-0.353,0.167 c-0.119,0.045-0.24,0.08-0.361,0.104c-0.119,0.024-0.23,0.036-0.334,0.036c-0.223,0-0.421-0.029-0.596-0.085 c-0.174-0.057-0.32-0.149-0.438-0.275c-0.118-0.126-0.206-0.292-0.267-0.5c-0.06-0.207-0.09-0.463-0.09-0.77v-4.185h-0.792 V153.368z"></path> <path d="M334.164,157.418c0-0.726,0.189-1.3,0.566-1.724c0.379-0.423,0.918-0.634,1.621-0.634c0.377,0,0.703,0.062,0.976,0.185 s0.499,0.29,0.68,0.5s0.313,0.459,0.4,0.747c0.087,0.288,0.131,0.597,0.131,0.927c0,0.36-0.048,0.686-0.144,0.977 c-0.097,0.291-0.238,0.539-0.424,0.743c-0.186,0.204-0.416,0.361-0.688,0.472s-0.583,0.167-0.931,0.167 c-0.373,0-0.697-0.062-0.973-0.185c-0.275-0.123-0.504-0.289-0.684-0.5c-0.181-0.21-0.314-0.459-0.4-0.747 C334.207,158.057,334.164,157.748,334.164,157.418z M334.91,157.418c0,0.21,0.025,0.42,0.077,0.63 c0.051,0.21,0.133,0.399,0.247,0.567c0.113,0.168,0.262,0.303,0.443,0.405c0.183,0.102,0.405,0.153,0.668,0.153 c0.479,0,0.84-0.148,1.082-0.445s0.363-0.733,0.363-1.31c0-0.216-0.025-0.428-0.076-0.634c-0.051-0.207-0.135-0.395-0.252-0.563 c-0.116-0.168-0.266-0.303-0.448-0.405s-0.405-0.153-0.669-0.153c-0.479,0-0.837,0.147-1.076,0.441S334.91,156.836,334.91,157.418 z"></path> <path d="M339.33,155.168h1.07v-0.891l0.711-0.198v1.089h2.403v0.603h-2.403v2.124c0,0.438,0.106,0.762,0.318,0.972 c0.213,0.21,0.516,0.315,0.911,0.315c0.269,0,0.503-0.051,0.704-0.153c0.2-0.102,0.381-0.213,0.543-0.333l0.232,0.531 c-0.209,0.168-0.46,0.303-0.751,0.405s-0.589,0.153-0.896,0.153c-0.24,0-0.467-0.035-0.68-0.104s-0.4-0.176-0.563-0.32 s-0.291-0.328-0.387-0.553s-0.145-0.494-0.145-0.806v-2.232h-1.07V155.168z"></path> <path d="M352.082,159.146c0.24,0,0.461-0.031,0.662-0.094c0.201-0.063,0.377-0.151,0.526-0.264 c0.149-0.114,0.267-0.251,0.351-0.413c0.084-0.162,0.127-0.341,0.127-0.538c0-0.413-0.146-0.707-0.438-0.883 s-0.682-0.265-1.174-0.265h-0.576v-0.432l1.782-2.241h-2.7v-0.648h3.564v0.648l-1.782,2.079h0.145c0.277,0,0.53,0.04,0.759,0.117 c0.229,0.078,0.428,0.189,0.598,0.333c0.168,0.144,0.299,0.318,0.393,0.522c0.094,0.204,0.141,0.435,0.141,0.693 c0,0.324-0.063,0.612-0.189,0.864c-0.127,0.252-0.298,0.463-0.515,0.634c-0.216,0.171-0.471,0.3-0.763,0.387 c-0.291,0.087-0.603,0.13-0.934,0.13c-0.307,0-0.572-0.023-0.799-0.068c-0.225-0.045-0.431-0.102-0.617-0.169l0.18-0.636 c0.156,0.072,0.34,0.131,0.549,0.176C351.582,159.124,351.819,159.146,352.082,159.146z"></path> <path d="M357.348,155.636c0-0.192,0.054-0.34,0.162-0.445c0.107-0.105,0.252-0.157,0.432-0.157c0.191,0,0.342,0.052,0.45,0.157 s0.162,0.253,0.162,0.445c0,0.174-0.054,0.318-0.162,0.432c-0.108,0.114-0.259,0.171-0.45,0.171c-0.18,0-0.324-0.057-0.432-0.171 C357.402,155.954,357.348,155.81,357.348,155.636z M357.348,159.173c0-0.192,0.054-0.34,0.162-0.445 c0.107-0.105,0.252-0.158,0.432-0.158c0.191,0,0.342,0.053,0.45,0.158s0.162,0.253,0.162,0.445c0,0.174-0.054,0.318-0.162,0.432 s-0.259,0.171-0.45,0.171c-0.18,0-0.324-0.057-0.432-0.171C357.402,159.491,357.348,159.347,357.348,159.173z"></path> <path d="M328.809,165.968h1.287v3.069c0,0.294,0.018,0.576,0.054,0.846h0.604v0.585h-1.207l-0.027-0.765h-0.036 c-0.156,0.258-0.362,0.468-0.619,0.63c-0.257,0.162-0.568,0.243-0.934,0.243c-0.275,0-0.51-0.031-0.704-0.094 c-0.195-0.063-0.354-0.172-0.48-0.329c-0.125-0.156-0.218-0.365-0.278-0.625c-0.06-0.261-0.089-0.586-0.089-0.977v-1.98h-0.603 v-0.603h1.314v2.439c0,0.246,0.01,0.467,0.031,0.662c0.021,0.195,0.064,0.36,0.129,0.495c0.065,0.135,0.162,0.237,0.29,0.306 c0.128,0.069,0.299,0.104,0.514,0.104c0.31,0,0.579-0.102,0.808-0.306c0.229-0.204,0.403-0.459,0.522-0.765v-2.331h-0.576V165.968 z"></path> <path d="M331.788,167.543c0-0.054-0.001-0.125-0.005-0.212c-0.002-0.087-0.008-0.177-0.014-0.27 c-0.006-0.093-0.013-0.184-0.021-0.274c-0.01-0.09-0.02-0.168-0.031-0.234h-0.604v-0.585h1.206l0.081,0.729h0.045 c0.06-0.102,0.139-0.203,0.238-0.301c0.1-0.099,0.215-0.189,0.347-0.27c0.132-0.081,0.278-0.146,0.44-0.194 c0.162-0.048,0.334-0.072,0.514-0.072c0.275,0,0.52,0.03,0.733,0.09c0.213,0.06,0.39,0.167,0.53,0.319 c0.142,0.153,0.248,0.36,0.32,0.621c0.072,0.261,0.107,0.593,0.107,0.995v2.583h-0.711v-2.442c0-0.497-0.08-0.871-0.242-1.123 c-0.161-0.251-0.454-0.377-0.879-0.377c-0.155,0-0.307,0.031-0.453,0.094s-0.279,0.145-0.398,0.247 c-0.119,0.102-0.225,0.22-0.314,0.354s-0.154,0.277-0.197,0.427v2.819h-0.692V167.543z"></path> <path d="M339.61,165.968h1.287v3.069c0,0.294,0.018,0.576,0.054,0.846h0.603v0.585h-1.205l-0.027-0.765h-0.036 c-0.155,0.258-0.362,0.468-0.619,0.63c-0.257,0.162-0.568,0.243-0.934,0.243c-0.274,0-0.51-0.031-0.704-0.094 c-0.195-0.063-0.354-0.172-0.48-0.329c-0.125-0.156-0.219-0.365-0.278-0.625c-0.06-0.261-0.089-0.586-0.089-0.977v-1.98h-0.604 v-0.603h1.314v2.439c0,0.246,0.01,0.467,0.031,0.662c0.02,0.195,0.063,0.36,0.129,0.495c0.065,0.135,0.162,0.237,0.29,0.306 c0.128,0.069,0.3,0.104,0.514,0.104c0.31,0,0.579-0.102,0.808-0.306c0.23-0.204,0.404-0.459,0.523-0.765v-2.331h-0.576V165.968z"></path> <path d="M345.684,169.253c0-0.192-0.074-0.341-0.225-0.446c-0.148-0.105-0.334-0.189-0.556-0.252s-0.462-0.122-0.722-0.175 c-0.261-0.054-0.502-0.126-0.723-0.216c-0.222-0.09-0.407-0.211-0.557-0.364c-0.15-0.153-0.225-0.368-0.225-0.644 c0-0.228,0.05-0.423,0.148-0.585c0.1-0.162,0.23-0.295,0.392-0.4c0.162-0.105,0.351-0.183,0.567-0.234 c0.216-0.051,0.441-0.076,0.675-0.076c0.42,0,0.781,0.053,1.085,0.157c0.303,0.105,0.544,0.215,0.725,0.329l-0.287,0.567 c-0.198-0.108-0.412-0.211-0.643-0.311c-0.23-0.099-0.519-0.148-0.865-0.148c-0.132,0-0.262,0.014-0.391,0.041 c-0.129,0.027-0.245,0.068-0.35,0.122c-0.104,0.054-0.188,0.125-0.251,0.211c-0.063,0.087-0.095,0.194-0.095,0.32 c0,0.156,0.075,0.276,0.225,0.36s0.335,0.154,0.557,0.211c0.221,0.057,0.462,0.111,0.723,0.162c0.26,0.051,0.5,0.125,0.722,0.22 c0.222,0.096,0.407,0.225,0.557,0.387s0.224,0.381,0.224,0.657c0,0.414-0.163,0.756-0.49,1.026s-0.817,0.405-1.471,0.405 c-0.199,0-0.394-0.018-0.586-0.054c-0.191-0.036-0.371-0.084-0.539-0.144s-0.322-0.127-0.459-0.203 c-0.139-0.075-0.252-0.151-0.343-0.229l0.359-0.585c0.071,0.072,0.167,0.146,0.287,0.22c0.119,0.075,0.251,0.143,0.395,0.203 s0.298,0.108,0.462,0.144c0.165,0.036,0.331,0.054,0.498,0.054c0.162,0,0.313-0.014,0.453-0.041 c0.141-0.027,0.266-0.069,0.373-0.126s0.193-0.132,0.256-0.225C345.653,169.498,345.684,169.385,345.684,169.253z"></path> <path d="M351.912,169.901c-0.108,0.096-0.236,0.186-0.383,0.27s-0.308,0.156-0.481,0.216s-0.355,0.106-0.544,0.14 c-0.189,0.033-0.38,0.049-0.572,0.049c-0.359,0-0.678-0.056-0.953-0.167c-0.277-0.111-0.508-0.27-0.693-0.477 c-0.187-0.207-0.327-0.455-0.424-0.742c-0.096-0.288-0.144-0.612-0.144-0.972c0-0.378,0.053-0.714,0.157-1.008 c0.105-0.294,0.257-0.54,0.455-0.738c0.197-0.198,0.438-0.349,0.72-0.455c0.282-0.104,0.597-0.157,0.945-0.157 c0.252,0,0.501,0.033,0.747,0.099c0.246,0.066,0.463,0.19,0.652,0.373c0.189,0.183,0.334,0.436,0.437,0.756 c0.102,0.321,0.138,0.736,0.108,1.247h-3.475c0,0.54,0.145,0.943,0.436,1.21c0.29,0.267,0.678,0.4,1.162,0.4 c0.162,0,0.322-0.02,0.48-0.059s0.31-0.085,0.453-0.14c0.144-0.054,0.271-0.114,0.382-0.18s0.196-0.126,0.256-0.18 L351.912,169.901z M350.018,166.454c-0.198,0-0.385,0.021-0.562,0.063c-0.177,0.042-0.331,0.113-0.466,0.212 c-0.135,0.099-0.246,0.228-0.332,0.387c-0.087,0.159-0.143,0.355-0.166,0.589h2.789c-0.029-0.396-0.156-0.703-0.381-0.922 C350.676,166.563,350.382,166.454,350.018,166.454z"></path> <path d="M355.683,164.168h1.468v4.761c0,0.054,0.002,0.122,0.008,0.203s0.014,0.167,0.023,0.256 c0.009,0.09,0.02,0.179,0.031,0.266s0.023,0.164,0.036,0.229h0.603v0.585h-1.205l-0.091-0.693h-0.036 c-0.131,0.228-0.328,0.418-0.588,0.571c-0.26,0.153-0.561,0.229-0.902,0.229c-0.676,0-1.174-0.19-1.494-0.571 s-0.48-0.974-0.48-1.778c0-0.378,0.054-0.712,0.162-1.003c0.107-0.291,0.262-0.534,0.462-0.729c0.2-0.195,0.441-0.343,0.723-0.445 s0.595-0.153,0.942-0.153c0.125,0,0.238,0.003,0.336,0.009c0.1,0.006,0.19,0.015,0.274,0.027c0.084,0.012,0.163,0.029,0.237,0.05 c0.075,0.021,0.158,0.043,0.248,0.067v-1.278h-0.757V164.168z M355.147,169.973c0.365,0,0.652-0.094,0.861-0.283 s0.354-0.473,0.432-0.851v-2.088c-0.133-0.09-0.28-0.156-0.445-0.198c-0.164-0.042-0.381-0.063-0.649-0.063 c-0.479,0-0.855,0.14-1.13,0.418c-0.275,0.279-0.413,0.719-0.413,1.318c0,0.246,0.022,0.476,0.067,0.688 c0.045,0.213,0.119,0.398,0.225,0.554c0.104,0.156,0.243,0.279,0.416,0.369C354.684,169.928,354.897,169.973,355.147,169.973z"></path> </g> </g> <g> <g> <path d="M234.116,158.453c0-0.192-0.075-0.341-0.225-0.446c-0.149-0.105-0.335-0.189-0.556-0.252s-0.462-0.122-0.722-0.175 c-0.26-0.054-0.501-0.126-0.723-0.216c-0.221-0.09-0.407-0.211-0.556-0.364c-0.15-0.153-0.225-0.368-0.225-0.644 c0-0.228,0.05-0.423,0.149-0.585c0.099-0.162,0.229-0.295,0.391-0.4c0.162-0.105,0.351-0.183,0.567-0.234 c0.216-0.051,0.441-0.076,0.675-0.076c0.42,0,0.781,0.053,1.084,0.157c0.303,0.105,0.544,0.215,0.725,0.329l-0.287,0.567 c-0.198-0.108-0.411-0.211-0.642-0.311c-0.23-0.099-0.519-0.148-0.866-0.148c-0.132,0-0.262,0.014-0.391,0.041 c-0.128,0.027-0.245,0.068-0.35,0.122c-0.104,0.054-0.188,0.125-0.251,0.211c-0.063,0.087-0.094,0.194-0.094,0.32 c0,0.156,0.075,0.276,0.224,0.36s0.335,0.154,0.556,0.211c0.222,0.057,0.462,0.111,0.723,0.162s0.501,0.125,0.722,0.22 c0.222,0.096,0.407,0.225,0.557,0.387c0.149,0.162,0.224,0.381,0.224,0.657c0,0.414-0.164,0.756-0.491,1.026 s-0.817,0.405-1.471,0.405c-0.198,0-0.393-0.018-0.585-0.054c-0.192-0.036-0.372-0.084-0.54-0.144s-0.321-0.127-0.459-0.203 c-0.138-0.075-0.252-0.151-0.342-0.229l0.359-0.585c0.071,0.072,0.167,0.146,0.287,0.22c0.119,0.075,0.251,0.143,0.395,0.203 s0.298,0.108,0.462,0.144s0.331,0.054,0.498,0.054c0.162,0,0.313-0.014,0.453-0.041c0.141-0.027,0.265-0.069,0.373-0.126 s0.193-0.132,0.256-0.225C234.085,158.698,234.116,158.585,234.116,158.453z"></path> <path d="M236.654,153.368h1.503v4.788c0,0.366,0.061,0.625,0.184,0.774s0.305,0.225,0.545,0.225c0.167,0,0.328-0.03,0.481-0.09 c0.153-0.06,0.322-0.162,0.508-0.306l0.324,0.495c-0.097,0.084-0.202,0.159-0.316,0.225c-0.114,0.066-0.231,0.122-0.352,0.167 c-0.12,0.045-0.241,0.08-0.361,0.104c-0.12,0.024-0.231,0.036-0.334,0.036c-0.223,0-0.421-0.029-0.596-0.085 c-0.175-0.057-0.321-0.149-0.438-0.275c-0.118-0.126-0.206-0.292-0.267-0.5c-0.06-0.207-0.09-0.463-0.09-0.77v-4.185h-0.792 V153.368z"></path> <path d="M241.496,157.418c0-0.726,0.189-1.3,0.567-1.724c0.378-0.423,0.918-0.634,1.62-0.634c0.378,0,0.703,0.062,0.976,0.185 s0.5,0.29,0.68,0.5s0.313,0.459,0.4,0.747c0.087,0.288,0.131,0.597,0.131,0.927c0,0.36-0.048,0.686-0.144,0.977 c-0.096,0.291-0.237,0.539-0.423,0.743c-0.186,0.204-0.416,0.361-0.688,0.472s-0.583,0.167-0.931,0.167 c-0.372,0-0.696-0.062-0.972-0.185c-0.276-0.123-0.504-0.289-0.684-0.5c-0.18-0.21-0.313-0.459-0.4-0.747 C241.54,158.057,241.496,157.748,241.496,157.418z M242.243,157.418c0,0.21,0.025,0.42,0.077,0.63 c0.051,0.21,0.133,0.399,0.247,0.567c0.114,0.168,0.262,0.303,0.444,0.405c0.182,0.102,0.405,0.153,0.668,0.153 c0.479,0,0.839-0.148,1.082-0.445c0.242-0.297,0.363-0.733,0.363-1.31c0-0.216-0.025-0.428-0.077-0.634 c-0.051-0.207-0.134-0.395-0.251-0.563s-0.266-0.303-0.449-0.405s-0.405-0.153-0.668-0.153c-0.479,0-0.837,0.147-1.077,0.441 S242.243,156.836,242.243,157.418z"></path> <path d="M246.662,155.168h1.071v-0.891l0.711-0.198v1.089h2.403v0.603h-2.403v2.124c0,0.438,0.106,0.762,0.318,0.972 s0.516,0.315,0.911,0.315c0.269,0,0.503-0.051,0.704-0.153c0.2-0.102,0.381-0.213,0.542-0.333l0.233,0.531 c-0.21,0.168-0.46,0.303-0.751,0.405s-0.589,0.153-0.896,0.153c-0.24,0-0.467-0.035-0.68-0.104s-0.4-0.176-0.563-0.32 c-0.162-0.144-0.291-0.328-0.387-0.553c-0.096-0.225-0.144-0.494-0.144-0.806v-2.232h-1.071V155.168z"></path> <path d="M261.692,154.961c0,0.552-0.262,1.167-0.785,1.845c-0.524,0.678-1.255,1.416-2.194,2.214h3.177v0.648h-4.005v-0.648 c0.114-0.108,0.27-0.249,0.468-0.423c0.198-0.174,0.411-0.368,0.639-0.581s0.46-0.442,0.697-0.688 c0.237-0.246,0.452-0.498,0.644-0.756c0.192-0.258,0.348-0.516,0.468-0.774c0.12-0.258,0.18-0.507,0.18-0.747 c0-0.36-0.094-0.644-0.283-0.85c-0.189-0.207-0.473-0.311-0.851-0.311c-0.324,0-0.597,0.036-0.819,0.108 c-0.222,0.072-0.423,0.177-0.603,0.315l-0.306-0.495c0.271-0.192,0.558-0.333,0.862-0.423c0.304-0.09,0.636-0.135,0.997-0.135 c0.565,0,0.993,0.153,1.281,0.459C261.548,154.025,261.692,154.439,261.692,154.961z"></path> <path d="M264.68,155.636c0-0.192,0.054-0.34,0.162-0.445c0.108-0.105,0.252-0.157,0.432-0.157c0.192,0,0.342,0.052,0.45,0.157 s0.162,0.253,0.162,0.445c0,0.174-0.054,0.318-0.162,0.432c-0.108,0.114-0.258,0.171-0.45,0.171c-0.18,0-0.324-0.057-0.432-0.171 C264.734,155.954,264.68,155.81,264.68,155.636z M264.68,159.173c0-0.192,0.054-0.34,0.162-0.445 c0.108-0.105,0.252-0.158,0.432-0.158c0.192,0,0.342,0.053,0.45,0.158s0.162,0.253,0.162,0.445c0,0.174-0.054,0.318-0.162,0.432 s-0.258,0.171-0.45,0.171c-0.18,0-0.324-0.057-0.432-0.171C264.734,159.491,264.68,159.347,264.68,159.173z"></path> <path d="M212.229,170.468v-0.603h1.566v-3.294h-1.566v-0.603h2.277v3.897h1.53v0.603H212.229z M213.543,164.69 c0-0.162,0.054-0.302,0.162-0.418c0.108-0.117,0.246-0.176,0.414-0.176c0.174,0,0.319,0.059,0.437,0.176 c0.117,0.117,0.175,0.256,0.175,0.418c0,0.156-0.058,0.288-0.175,0.396c-0.117,0.108-0.263,0.162-0.437,0.162 c-0.168,0-0.306-0.054-0.414-0.162C213.597,164.978,213.543,164.846,213.543,164.69z"></path> <path d="M216.963,165.968h1.071v-0.891l0.711-0.198v1.089h2.403v0.603h-2.403v2.124c0,0.438,0.106,0.762,0.318,0.972 s0.516,0.315,0.911,0.315c0.269,0,0.503-0.051,0.704-0.153c0.2-0.102,0.381-0.213,0.542-0.333l0.233,0.531 c-0.21,0.168-0.46,0.303-0.751,0.405s-0.589,0.153-0.896,0.153c-0.24,0-0.467-0.035-0.68-0.104s-0.4-0.176-0.563-0.32 c-0.162-0.144-0.291-0.328-0.387-0.553c-0.096-0.225-0.144-0.494-0.144-0.806v-2.232h-1.071V165.968z"></path> <path d="M226.845,169.901c-0.108,0.096-0.236,0.186-0.383,0.27s-0.308,0.156-0.481,0.216s-0.355,0.106-0.544,0.14 c-0.189,0.033-0.379,0.049-0.572,0.049c-0.36,0-0.678-0.056-0.954-0.167c-0.276-0.111-0.507-0.27-0.693-0.477 s-0.327-0.455-0.423-0.742c-0.096-0.288-0.144-0.612-0.144-0.972c0-0.378,0.053-0.714,0.158-1.008s0.256-0.54,0.455-0.738 c0.198-0.198,0.438-0.349,0.72-0.455c0.282-0.104,0.597-0.157,0.945-0.157c0.252,0,0.5,0.033,0.747,0.099 c0.246,0.066,0.464,0.19,0.653,0.373c0.189,0.183,0.334,0.436,0.437,0.756c0.102,0.321,0.138,0.736,0.108,1.247h-3.474 c0,0.54,0.145,0.943,0.436,1.21c0.29,0.267,0.678,0.4,1.162,0.4c0.162,0,0.322-0.02,0.48-0.059s0.31-0.085,0.453-0.14 c0.144-0.054,0.271-0.114,0.382-0.18c0.11-0.066,0.196-0.126,0.256-0.18L226.845,169.901z M224.95,166.454 c-0.198,0-0.384,0.021-0.561,0.063c-0.176,0.042-0.332,0.113-0.466,0.212c-0.135,0.099-0.245,0.228-0.332,0.387 c-0.086,0.159-0.142,0.355-0.166,0.589h2.79c-0.03-0.396-0.157-0.703-0.381-0.922C225.609,166.563,225.315,166.454,224.95,166.454 z"></path> <path d="M228.321,167.543c0-0.054-0.001-0.125-0.004-0.212c-0.003-0.087-0.008-0.177-0.014-0.27 c-0.006-0.093-0.013-0.184-0.022-0.274c-0.009-0.09-0.02-0.168-0.031-0.234h-0.603v-0.585h1.206l0.081,0.729h0.045 c0.06-0.102,0.139-0.203,0.238-0.301c0.099-0.099,0.214-0.189,0.347-0.27c0.132-0.081,0.279-0.146,0.441-0.194 c0.162-0.048,0.333-0.072,0.513-0.072c0.276,0,0.52,0.03,0.733,0.09c0.213,0.06,0.39,0.167,0.531,0.319 c0.141,0.153,0.248,0.36,0.32,0.621c0.072,0.261,0.108,0.593,0.108,0.995v2.583h-0.711v-2.442c0-0.497-0.081-0.871-0.242-1.123 c-0.162-0.251-0.455-0.377-0.879-0.377c-0.156,0-0.307,0.031-0.453,0.094s-0.279,0.145-0.399,0.247 c-0.12,0.102-0.224,0.22-0.314,0.354s-0.155,0.277-0.197,0.427v2.819h-0.693V167.543z"></path> <path d="M236.817,169.253c0-0.192-0.075-0.341-0.225-0.446c-0.149-0.105-0.335-0.189-0.556-0.252s-0.462-0.122-0.722-0.175 c-0.26-0.054-0.501-0.126-0.723-0.216c-0.221-0.09-0.407-0.211-0.556-0.364c-0.15-0.153-0.225-0.368-0.225-0.644 c0-0.228,0.05-0.423,0.149-0.585c0.099-0.162,0.229-0.295,0.391-0.4c0.162-0.105,0.351-0.183,0.567-0.234 c0.216-0.051,0.441-0.076,0.675-0.076c0.42,0,0.781,0.053,1.084,0.157c0.303,0.105,0.544,0.215,0.725,0.329l-0.287,0.567 c-0.198-0.108-0.411-0.211-0.642-0.311c-0.23-0.099-0.519-0.148-0.866-0.148c-0.132,0-0.262,0.014-0.391,0.041 c-0.128,0.027-0.245,0.068-0.35,0.122c-0.104,0.054-0.188,0.125-0.251,0.211c-0.063,0.087-0.094,0.194-0.094,0.32 c0,0.156,0.075,0.276,0.224,0.36s0.335,0.154,0.556,0.211c0.222,0.057,0.462,0.111,0.723,0.162s0.501,0.125,0.722,0.22 c0.222,0.096,0.407,0.225,0.557,0.387c0.149,0.162,0.224,0.381,0.224,0.657c0,0.414-0.164,0.756-0.491,1.026 s-0.817,0.405-1.471,0.405c-0.198,0-0.393-0.018-0.585-0.054c-0.192-0.036-0.372-0.084-0.54-0.144s-0.321-0.127-0.459-0.203 c-0.138-0.075-0.252-0.151-0.342-0.229l0.359-0.585c0.071,0.072,0.167,0.146,0.287,0.22c0.119,0.075,0.251,0.143,0.395,0.203 s0.298,0.108,0.462,0.144s0.331,0.054,0.498,0.054c0.162,0,0.313-0.014,0.453-0.041c0.141-0.027,0.265-0.069,0.373-0.126 s0.193-0.132,0.256-0.225C236.785,169.498,236.817,169.385,236.817,169.253z"></path> <path d="M240.381,169.973c0-0.192,0.054-0.34,0.162-0.445c0.108-0.105,0.252-0.158,0.432-0.158c0.192,0,0.342,0.053,0.45,0.158 s0.162,0.253,0.162,0.445c0,0.174-0.054,0.318-0.162,0.432s-0.258,0.171-0.45,0.171c-0.18,0-0.324-0.057-0.432-0.171 C240.434,170.291,240.381,170.147,240.381,169.973z"></path> <path d="M244.754,164.168h1.503v4.788c0,0.366,0.061,0.625,0.184,0.774s0.305,0.225,0.545,0.225c0.167,0,0.328-0.03,0.481-0.09 c0.153-0.06,0.322-0.162,0.508-0.306l0.324,0.495c-0.097,0.084-0.202,0.159-0.316,0.225c-0.114,0.066-0.231,0.122-0.352,0.167 c-0.12,0.045-0.241,0.08-0.361,0.104c-0.12,0.024-0.231,0.036-0.334,0.036c-0.223,0-0.421-0.029-0.596-0.085 c-0.175-0.057-0.321-0.149-0.438-0.275c-0.118-0.126-0.206-0.292-0.267-0.5c-0.06-0.207-0.09-0.463-0.09-0.77v-4.185h-0.792 V164.168z"></path> <path d="M253.844,169.901c-0.108,0.096-0.236,0.186-0.383,0.27s-0.308,0.156-0.481,0.216s-0.355,0.106-0.544,0.14 c-0.189,0.033-0.379,0.049-0.572,0.049c-0.36,0-0.678-0.056-0.954-0.167c-0.276-0.111-0.507-0.27-0.693-0.477 s-0.327-0.455-0.423-0.742c-0.096-0.288-0.144-0.612-0.144-0.972c0-0.378,0.053-0.714,0.158-1.008s0.256-0.54,0.455-0.738 c0.198-0.198,0.438-0.349,0.72-0.455c0.282-0.104,0.597-0.157,0.945-0.157c0.252,0,0.5,0.033,0.747,0.099 c0.246,0.066,0.464,0.19,0.653,0.373c0.189,0.183,0.334,0.436,0.437,0.756c0.102,0.321,0.138,0.736,0.108,1.247h-3.474 c0,0.54,0.145,0.943,0.436,1.21c0.29,0.267,0.678,0.4,1.162,0.4c0.162,0,0.322-0.02,0.48-0.059s0.31-0.085,0.453-0.14 c0.144-0.054,0.271-0.114,0.382-0.18c0.11-0.066,0.196-0.126,0.256-0.18L253.844,169.901z M251.949,166.454 c-0.198,0-0.384,0.021-0.561,0.063c-0.176,0.042-0.332,0.113-0.466,0.212c-0.135,0.099-0.245,0.228-0.332,0.387 c-0.086,0.159-0.142,0.355-0.166,0.589h2.79c-0.03-0.396-0.157-0.703-0.381-0.922 C252.609,166.563,252.314,166.454,251.949,166.454z"></path> <path d="M255.32,167.543c0-0.054-0.001-0.125-0.004-0.212c-0.003-0.087-0.008-0.177-0.014-0.27 c-0.006-0.093-0.013-0.184-0.022-0.274c-0.009-0.09-0.02-0.168-0.031-0.234h-0.603v-0.585h1.206l0.081,0.729h0.045 c0.06-0.102,0.139-0.203,0.238-0.301c0.099-0.099,0.214-0.189,0.347-0.27c0.132-0.081,0.279-0.146,0.441-0.194 c0.162-0.048,0.333-0.072,0.513-0.072c0.276,0,0.52,0.03,0.733,0.09c0.213,0.06,0.39,0.167,0.531,0.319 c0.141,0.153,0.248,0.36,0.32,0.621c0.072,0.261,0.108,0.593,0.108,0.995v2.583h-0.711v-2.442c0-0.497-0.081-0.871-0.242-1.123 c-0.162-0.251-0.455-0.377-0.879-0.377c-0.156,0-0.307,0.031-0.453,0.094s-0.279,0.145-0.399,0.247 c-0.12,0.102-0.224,0.22-0.314,0.354s-0.155,0.277-0.197,0.427v2.819h-0.693V167.543z"></path> <path d="M264.599,170.693c0,0.282-0.054,0.529-0.162,0.742c-0.108,0.213-0.257,0.389-0.446,0.527 c-0.189,0.138-0.409,0.241-0.662,0.311c-0.252,0.069-0.525,0.104-0.819,0.104c-0.354,0-0.663-0.036-0.927-0.108 c-0.264-0.072-0.492-0.165-0.684-0.279l0.341-0.639c0.054,0.048,0.124,0.095,0.211,0.14c0.086,0.045,0.187,0.087,0.3,0.126 c0.114,0.039,0.235,0.07,0.364,0.095c0.128,0.024,0.255,0.036,0.381,0.036c0.263,0,0.483-0.024,0.659-0.072 c0.177-0.048,0.319-0.123,0.426-0.225c0.108-0.102,0.186-0.234,0.233-0.396s0.072-0.36,0.072-0.594v-0.504h-0.036 c-0.138,0.198-0.314,0.351-0.53,0.459c-0.215,0.108-0.494,0.162-0.835,0.162c-0.682,0-1.183-0.19-1.503-0.571 c-0.32-0.381-0.48-0.974-0.48-1.778c0-0.768,0.204-1.348,0.612-1.741s1.014-0.589,1.818-0.589c0.372,0,0.688,0.025,0.95,0.076 c0.261,0.051,0.5,0.116,0.715,0.194V170.693z M262.592,169.973c0.363,0,0.649-0.094,0.858-0.283s0.354-0.479,0.438-0.869v-2.133 c-0.262-0.126-0.628-0.189-1.1-0.189c-0.477,0-0.852,0.141-1.126,0.423c-0.274,0.282-0.411,0.714-0.411,1.296 c0,0.258,0.023,0.494,0.071,0.707s0.124,0.397,0.228,0.553c0.104,0.156,0.241,0.278,0.411,0.365S262.342,169.973,262.592,169.973z "></path> <path d="M265.319,164.168h1.404v2.358h0.045c0.186-0.21,0.402-0.374,0.648-0.491c0.246-0.117,0.552-0.175,0.918-0.175 c0.288,0,0.539,0.03,0.752,0.09c0.213,0.06,0.387,0.165,0.522,0.315c0.135,0.15,0.235,0.355,0.301,0.617 c0.066,0.261,0.099,0.592,0.099,0.995v2.592h-0.711v-2.457c0-0.258-0.015-0.483-0.045-0.675c-0.03-0.192-0.088-0.353-0.175-0.481 c-0.087-0.129-0.205-0.227-0.354-0.292c-0.149-0.066-0.341-0.099-0.574-0.099c-0.162,0-0.32,0.028-0.476,0.085 s-0.297,0.135-0.426,0.234c-0.129,0.099-0.239,0.219-0.332,0.36c-0.093,0.141-0.157,0.296-0.193,0.464v2.862h-0.693v-5.697h-0.711 V164.168z"></path> <path d="M270.962,165.968h1.071v-0.891l0.711-0.198v1.089h2.403v0.603h-2.403v2.124c0,0.438,0.106,0.762,0.318,0.972 s0.516,0.315,0.911,0.315c0.269,0,0.503-0.051,0.704-0.153c0.2-0.102,0.381-0.213,0.542-0.333l0.233,0.531 c-0.21,0.168-0.46,0.303-0.751,0.405s-0.589,0.153-0.896,0.153c-0.24,0-0.467-0.035-0.68-0.104s-0.4-0.176-0.563-0.32 c-0.162-0.144-0.291-0.328-0.387-0.553c-0.096-0.225-0.144-0.494-0.144-0.806v-2.232h-1.071V165.968z"></path> <path d="M276.695,166.355h4.176v0.648h-4.176V166.355z M276.695,167.84h4.176v0.648h-4.176V167.84z"></path> <path d="M285.991,165.761c0,0.552-0.262,1.167-0.785,1.845c-0.524,0.678-1.255,1.416-2.194,2.214h3.177v0.648h-4.005v-0.648 c0.114-0.108,0.27-0.249,0.468-0.423c0.198-0.174,0.411-0.368,0.639-0.581s0.46-0.442,0.697-0.688 c0.237-0.246,0.452-0.498,0.644-0.756c0.192-0.258,0.348-0.516,0.468-0.774c0.12-0.258,0.18-0.507,0.18-0.747 c0-0.36-0.094-0.644-0.283-0.85c-0.189-0.207-0.473-0.311-0.851-0.311c-0.324,0-0.597,0.036-0.819,0.108 c-0.222,0.072-0.423,0.177-0.603,0.315l-0.306-0.495c0.271-0.192,0.558-0.333,0.862-0.423c0.304-0.09,0.636-0.135,0.997-0.135 c0.565,0,0.993,0.153,1.281,0.459C285.847,164.825,285.991,165.239,285.991,165.761z"></path> </g> </g> <g> <g> <path d="M399.417,158.453c0-0.192-0.075-0.341-0.225-0.446s-0.335-0.189-0.556-0.252c-0.222-0.063-0.463-0.122-0.723-0.175 c-0.26-0.054-0.502-0.126-0.723-0.216c-0.221-0.09-0.406-0.211-0.557-0.364c-0.149-0.153-0.225-0.368-0.225-0.644 c0-0.228,0.051-0.423,0.149-0.585s0.229-0.295,0.392-0.4s0.351-0.183,0.566-0.234c0.217-0.051,0.441-0.076,0.676-0.076 c0.42,0,0.781,0.053,1.084,0.157c0.303,0.105,0.545,0.215,0.725,0.329l-0.287,0.567c-0.197-0.108-0.411-0.211-0.642-0.311 c-0.23-0.099-0.519-0.148-0.866-0.148c-0.131,0-0.262,0.014-0.391,0.041c-0.128,0.027-0.244,0.068-0.35,0.122 c-0.104,0.054-0.188,0.125-0.25,0.211c-0.063,0.087-0.095,0.194-0.095,0.32c0,0.156,0.075,0.276,0.224,0.36 c0.15,0.084,0.336,0.154,0.557,0.211c0.222,0.057,0.463,0.111,0.723,0.162s0.501,0.125,0.723,0.22 c0.221,0.096,0.406,0.225,0.557,0.387c0.148,0.162,0.224,0.381,0.224,0.657c0,0.414-0.163,0.756-0.491,1.026 c-0.326,0.27-0.816,0.405-1.471,0.405c-0.198,0-0.393-0.018-0.585-0.054c-0.192-0.036-0.372-0.084-0.54-0.144 s-0.321-0.127-0.459-0.203c-0.139-0.075-0.252-0.151-0.342-0.229l0.359-0.585c0.07,0.072,0.167,0.146,0.287,0.22 c0.119,0.075,0.25,0.143,0.395,0.203c0.143,0.06,0.297,0.108,0.462,0.144s0.331,0.054,0.498,0.054 c0.161,0,0.313-0.014,0.453-0.041c0.141-0.027,0.265-0.069,0.372-0.126c0.108-0.057,0.193-0.132,0.256-0.225 C399.385,158.698,399.417,158.585,399.417,158.453z"></path> <path d="M401.955,153.368h1.503v4.788c0,0.366,0.062,0.625,0.185,0.774s0.305,0.225,0.545,0.225c0.167,0,0.328-0.03,0.48-0.09 c0.153-0.06,0.322-0.162,0.509-0.306l0.324,0.495c-0.097,0.084-0.202,0.159-0.316,0.225s-0.231,0.122-0.353,0.167 c-0.119,0.045-0.24,0.08-0.361,0.104c-0.119,0.024-0.23,0.036-0.334,0.036c-0.223,0-0.421-0.029-0.596-0.085 c-0.174-0.057-0.32-0.149-0.438-0.275s-0.206-0.292-0.267-0.5c-0.06-0.207-0.091-0.463-0.091-0.77v-4.185h-0.791V153.368z"></path> <path d="M406.797,157.418c0-0.726,0.189-1.3,0.566-1.724c0.379-0.423,0.918-0.634,1.621-0.634c0.377,0,0.703,0.062,0.976,0.185 s0.499,0.29,0.68,0.5s0.313,0.459,0.4,0.747c0.087,0.288,0.131,0.597,0.131,0.927c0,0.36-0.048,0.686-0.144,0.977 c-0.097,0.291-0.238,0.539-0.424,0.743c-0.186,0.204-0.416,0.361-0.688,0.472s-0.583,0.167-0.931,0.167 c-0.373,0-0.697-0.062-0.973-0.185c-0.275-0.123-0.504-0.289-0.684-0.5c-0.181-0.21-0.314-0.459-0.4-0.747 C406.84,158.057,406.797,157.748,406.797,157.418z M407.543,157.418c0,0.21,0.025,0.42,0.077,0.63 c0.051,0.21,0.133,0.399,0.247,0.567c0.113,0.168,0.262,0.303,0.443,0.405c0.183,0.102,0.405,0.153,0.668,0.153 c0.479,0,0.84-0.148,1.082-0.445s0.363-0.733,0.363-1.31c0-0.216-0.025-0.428-0.076-0.634c-0.051-0.207-0.135-0.395-0.252-0.563 c-0.116-0.168-0.266-0.303-0.448-0.405s-0.405-0.153-0.669-0.153c-0.479,0-0.837,0.147-1.076,0.441 S407.543,156.836,407.543,157.418z"></path> <path d="M411.963,155.168h1.07v-0.891l0.711-0.198v1.089h2.403v0.603h-2.403v2.124c0,0.438,0.106,0.762,0.318,0.972 c0.213,0.21,0.516,0.315,0.911,0.315c0.269,0,0.503-0.051,0.704-0.153c0.2-0.102,0.381-0.213,0.543-0.333l0.232,0.531 c-0.209,0.168-0.46,0.303-0.751,0.405s-0.589,0.153-0.896,0.153c-0.24,0-0.467-0.035-0.68-0.104s-0.4-0.176-0.563-0.32 s-0.291-0.328-0.387-0.553s-0.145-0.494-0.145-0.806v-2.232h-1.07V155.168z"></path> <path d="M422.699,153.368h1.458v3.726h0.495l1.773-1.926h0.846l-1.989,2.133l1.638,1.764h0.586v0.603h-0.928l-1.926-2.034h-0.495 v2.034h-0.692v-5.697h-0.766V153.368z"></path> <path d="M432.645,159.101c-0.108,0.096-0.236,0.186-0.383,0.27s-0.308,0.156-0.481,0.216s-0.355,0.106-0.544,0.14 c-0.189,0.033-0.38,0.049-0.572,0.049c-0.359,0-0.678-0.056-0.953-0.167c-0.277-0.111-0.508-0.27-0.693-0.477 c-0.187-0.207-0.327-0.455-0.424-0.742c-0.096-0.288-0.144-0.612-0.144-0.972c0-0.378,0.053-0.714,0.157-1.008 c0.105-0.294,0.257-0.54,0.455-0.738c0.197-0.198,0.438-0.349,0.72-0.455c0.282-0.104,0.597-0.157,0.945-0.157 c0.252,0,0.501,0.033,0.747,0.099c0.246,0.066,0.463,0.19,0.652,0.373c0.189,0.183,0.334,0.436,0.437,0.756 c0.102,0.321,0.138,0.736,0.108,1.247h-3.475c0,0.54,0.145,0.943,0.436,1.21c0.29,0.267,0.678,0.4,1.162,0.4 c0.162,0,0.322-0.02,0.48-0.059s0.31-0.085,0.453-0.14c0.144-0.054,0.271-0.114,0.382-0.18s0.196-0.126,0.256-0.18 L432.645,159.101z M430.75,155.654c-0.198,0-0.385,0.021-0.562,0.063c-0.177,0.042-0.331,0.113-0.466,0.212 c-0.135,0.099-0.246,0.228-0.332,0.387c-0.087,0.159-0.143,0.355-0.166,0.589h2.789c-0.029-0.396-0.156-0.703-0.381-0.922 C431.408,155.764,431.115,155.654,430.75,155.654z"></path> <path d="M437.235,155.861c-0.139-0.048-0.287-0.088-0.445-0.122c-0.159-0.033-0.316-0.049-0.473-0.049 c-0.588,0-1.026,0.138-1.314,0.415c-0.287,0.277-0.432,0.716-0.432,1.317c0,0.265,0.042,0.501,0.126,0.708s0.204,0.384,0.36,0.528 c0.155,0.145,0.343,0.256,0.563,0.334c0.219,0.078,0.46,0.117,0.725,0.117c0.281,0,0.556-0.049,0.822-0.146 c0.268-0.097,0.491-0.226,0.672-0.384l0.314,0.522c-0.084,0.072-0.189,0.147-0.314,0.225c-0.127,0.078-0.272,0.151-0.438,0.22 c-0.164,0.069-0.348,0.125-0.549,0.167s-0.418,0.063-0.652,0.063c-0.391,0-0.733-0.056-1.03-0.167 c-0.298-0.111-0.545-0.27-0.743-0.477c-0.197-0.207-0.348-0.456-0.449-0.747c-0.103-0.291-0.153-0.613-0.153-0.967 c0-0.378,0.052-0.714,0.157-1.008s0.257-0.54,0.455-0.738c0.197-0.198,0.438-0.349,0.72-0.455 c0.282-0.104,0.597-0.157,0.944-0.157c0.444,0,0.807,0.039,1.085,0.117c0.279,0.078,0.515,0.166,0.706,0.261l-0.008,0.027v1.251 h-0.648V155.861z"></path> <path d="M442.635,155.861c-0.139-0.048-0.287-0.088-0.446-0.122c-0.159-0.033-0.316-0.049-0.472-0.049 c-0.589,0-1.027,0.138-1.314,0.415c-0.288,0.277-0.432,0.716-0.432,1.317c0,0.265,0.041,0.501,0.125,0.708s0.204,0.384,0.36,0.528 c0.155,0.145,0.343,0.256,0.563,0.334s0.46,0.117,0.725,0.117c0.282,0,0.556-0.049,0.823-0.146 c0.268-0.097,0.49-0.226,0.671-0.384l0.315,0.522c-0.085,0.072-0.189,0.147-0.315,0.225c-0.126,0.078-0.272,0.151-0.437,0.22 c-0.165,0.069-0.348,0.125-0.549,0.167s-0.419,0.063-0.652,0.063c-0.391,0-0.734-0.056-1.031-0.167s-0.545-0.27-0.742-0.477 c-0.198-0.207-0.348-0.456-0.45-0.747c-0.103-0.291-0.153-0.613-0.153-0.967c0-0.378,0.053-0.714,0.158-1.008 c0.104-0.294,0.256-0.54,0.454-0.738c0.198-0.198,0.438-0.349,0.72-0.455c0.282-0.104,0.598-0.157,0.945-0.157 c0.443,0,0.806,0.039,1.084,0.117c0.279,0.078,0.516,0.166,0.707,0.261l-0.009,0.027v1.251h-0.647V155.861z"></path> <path d="M445.055,155.519c0.258-0.15,0.549-0.258,0.873-0.324c0.324-0.066,0.643-0.099,0.954-0.099 c0.306,0,0.557,0.048,0.751,0.144c0.195,0.096,0.349,0.221,0.459,0.374c0.111,0.153,0.187,0.327,0.226,0.522 c0.039,0.195,0.059,0.392,0.059,0.59c0,0.228-0.006,0.471-0.019,0.729c-0.012,0.258-0.021,0.516-0.026,0.774 c0,0.3,0.019,0.585,0.054,0.855h0.604v0.585h-1.189l-0.08-0.675h-0.045c-0.036,0.054-0.09,0.123-0.162,0.207 s-0.168,0.167-0.285,0.247c-0.117,0.081-0.26,0.152-0.428,0.212c-0.169,0.06-0.367,0.09-0.597,0.09 c-0.445,0-0.798-0.114-1.056-0.342c-0.26-0.228-0.389-0.54-0.389-0.936c0-0.306,0.068-0.561,0.203-0.765 c0.136-0.204,0.33-0.36,0.582-0.468c0.254-0.108,0.559-0.171,0.916-0.189c0.359-0.018,0.761,0.006,1.206,0.072 c0.03-0.276,0.034-0.505,0.014-0.688c-0.021-0.183-0.069-0.329-0.145-0.437s-0.181-0.185-0.316-0.229s-0.302-0.068-0.501-0.068 c-0.271,0-0.529,0.038-0.777,0.113c-0.246,0.075-0.466,0.151-0.658,0.229L445.055,155.519z M446.387,159.146 c0.168,0,0.324-0.027,0.469-0.081c0.144-0.054,0.27-0.123,0.377-0.207c0.108-0.084,0.199-0.175,0.271-0.274 c0.072-0.099,0.126-0.193,0.162-0.284v-0.63c-0.312-0.054-0.601-0.081-0.864-0.081s-0.492,0.029-0.684,0.085 c-0.192,0.057-0.342,0.146-0.45,0.266s-0.162,0.276-0.162,0.468c0,0.198,0.067,0.37,0.202,0.517 C445.842,159.073,446.069,159.146,446.387,159.146z"></path> <path d="M449.699,153.368h1.457v3.726h0.496l1.772-1.926h0.847l-1.99,2.133l1.639,1.764h0.585v0.603h-0.927l-1.926-2.034h-0.496 v2.034h-0.692v-5.697h-0.765V153.368z"></path> <path d="M459.392,154.961c0,0.552-0.262,1.167-0.785,1.845c-0.524,0.678-1.255,1.416-2.194,2.214h3.178v0.648h-4.005v-0.648 c0.114-0.108,0.271-0.249,0.468-0.423c0.198-0.174,0.411-0.368,0.639-0.581c0.229-0.213,0.461-0.442,0.697-0.688 c0.238-0.246,0.452-0.498,0.645-0.756c0.191-0.258,0.348-0.516,0.468-0.774c0.12-0.258,0.18-0.507,0.18-0.747 c0-0.36-0.095-0.644-0.283-0.85c-0.188-0.207-0.473-0.311-0.851-0.311c-0.324,0-0.598,0.036-0.818,0.108 c-0.223,0.072-0.424,0.177-0.604,0.315l-0.307-0.495c0.271-0.192,0.559-0.333,0.862-0.423s0.636-0.135,0.997-0.135 c0.564,0,0.992,0.153,1.281,0.459C459.248,154.025,459.392,154.439,459.392,154.961z"></path> <path d="M462.587,159.146c0.228,0,0.438-0.028,0.63-0.085c0.191-0.057,0.355-0.144,0.49-0.261c0.135-0.117,0.24-0.262,0.314-0.437 c0.076-0.174,0.113-0.378,0.113-0.612c0-0.432-0.154-0.761-0.463-0.985c-0.31-0.225-0.731-0.338-1.266-0.338l-0.846,0.045v-3.105 h3.096v0.648h-2.42v1.827l0.451-0.018c0.668,0,1.195,0.162,1.58,0.486c0.385,0.324,0.578,0.786,0.578,1.386 c0,0.336-0.059,0.633-0.176,0.891c-0.117,0.258-0.278,0.476-0.482,0.652c-0.205,0.177-0.447,0.311-0.727,0.401 c-0.279,0.09-0.585,0.135-0.916,0.135c-0.18,0-0.352-0.013-0.514-0.041c-0.162-0.027-0.311-0.06-0.442-0.099 c-0.132-0.039-0.248-0.081-0.347-0.126c-0.1-0.045-0.17-0.085-0.213-0.121l0.289-0.585c0.102,0.06,0.258,0.132,0.467,0.216 C461.996,159.104,462.263,159.146,462.587,159.146z"></path> <path d="M470.543,157.769c0,0.258-0.047,0.507-0.141,0.747c-0.093,0.24-0.229,0.453-0.41,0.639 c-0.18,0.186-0.402,0.336-0.667,0.45s-0.571,0.171-0.92,0.171c-0.325,0-0.62-0.051-0.884-0.153 c-0.265-0.102-0.493-0.248-0.686-0.437s-0.342-0.421-0.447-0.698c-0.104-0.276-0.157-0.585-0.157-0.927 c0-0.564,0.083-1.098,0.248-1.602s0.397-0.948,0.694-1.332c0.299-0.384,0.653-0.696,1.065-0.936 c0.412-0.24,0.864-0.384,1.358-0.432l0.126,0.576c-0.378,0.048-0.725,0.159-1.04,0.333c-0.314,0.174-0.589,0.39-0.822,0.648 c-0.234,0.258-0.426,0.543-0.572,0.855s-0.242,0.63-0.283,0.954c0.048-0.078,0.118-0.159,0.211-0.243 c0.094-0.084,0.204-0.157,0.334-0.22c0.129-0.063,0.272-0.116,0.432-0.158c0.158-0.042,0.331-0.063,0.518-0.063 c0.317,0,0.603,0.043,0.854,0.13c0.252,0.087,0.467,0.21,0.644,0.369c0.177,0.159,0.313,0.351,0.405,0.576 S470.543,157.493,470.543,157.769z M469.795,157.841c0-0.42-0.116-0.741-0.35-0.963c-0.232-0.222-0.592-0.333-1.076-0.333 c-0.174,0-0.335,0.021-0.484,0.063c-0.15,0.042-0.284,0.098-0.404,0.167c-0.119,0.069-0.224,0.148-0.313,0.239 c-0.09,0.09-0.159,0.18-0.206,0.27c-0.012,0.084-0.019,0.15-0.019,0.198c0,0.048,0,0.105,0,0.171c0,0.18,0.03,0.362,0.09,0.544 c0.06,0.183,0.151,0.347,0.274,0.491c0.122,0.144,0.275,0.261,0.461,0.351c0.186,0.09,0.404,0.135,0.655,0.135 c0.204,0,0.389-0.036,0.556-0.108c0.168-0.072,0.313-0.168,0.436-0.288c0.123-0.12,0.217-0.261,0.283-0.423 C469.763,158.192,469.795,158.021,469.795,157.841z"></path> <path d="M474.971,161.576c-0.402-0.103-0.779-0.254-1.13-0.455c-0.351-0.201-0.657-0.463-0.918-0.788s-0.468-0.72-0.62-1.188 c-0.154-0.468-0.23-1.023-0.23-1.665c0-0.636,0.078-1.192,0.234-1.669s0.365-0.882,0.63-1.215s0.571-0.6,0.923-0.801 c0.351-0.201,0.721-0.343,1.111-0.427l0.225,0.567c-0.355,0.102-0.68,0.235-0.976,0.4c-0.295,0.165-0.55,0.384-0.763,0.657 c-0.215,0.273-0.38,0.612-0.498,1.017c-0.117,0.405-0.176,0.896-0.176,1.472c0,0.582,0.071,1.079,0.213,1.49 c0.141,0.411,0.328,0.752,0.56,1.026c0.231,0.273,0.491,0.486,0.777,0.639c0.286,0.153,0.573,0.26,0.862,0.32L474.971,161.576z"></path> <path d="M480.991,154.961c0,0.552-0.262,1.167-0.785,1.845c-0.524,0.678-1.255,1.416-2.194,2.214h3.178v0.648h-4.005v-0.648 c0.114-0.108,0.271-0.249,0.468-0.423c0.198-0.174,0.411-0.368,0.639-0.581c0.229-0.213,0.461-0.442,0.697-0.688 c0.238-0.246,0.452-0.498,0.645-0.756c0.191-0.258,0.348-0.516,0.468-0.774c0.12-0.258,0.18-0.507,0.18-0.747 c0-0.36-0.095-0.644-0.283-0.85c-0.188-0.207-0.473-0.311-0.851-0.311c-0.324,0-0.598,0.036-0.818,0.108 c-0.223,0.072-0.424,0.177-0.604,0.315l-0.307-0.495c0.271-0.192,0.559-0.333,0.862-0.423s0.636-0.135,0.997-0.135 c0.564,0,0.992,0.153,1.281,0.459C480.848,154.025,480.991,154.439,480.991,154.961z"></path> <path d="M483.16,160.955c0.289-0.06,0.576-0.167,0.863-0.32c0.285-0.153,0.545-0.366,0.776-0.639 c0.231-0.273,0.419-0.615,0.56-1.026c0.143-0.411,0.213-0.908,0.213-1.49c0-0.576-0.059-1.066-0.176-1.472 c-0.117-0.405-0.283-0.744-0.497-1.017s-0.468-0.492-0.764-0.657c-0.295-0.165-0.62-0.298-0.976-0.4l0.225-0.567 c0.391,0.084,0.762,0.227,1.111,0.427c0.352,0.201,0.659,0.468,0.924,0.801c0.264,0.333,0.473,0.738,0.629,1.215 s0.234,1.034,0.234,1.669c0,0.642-0.076,1.197-0.229,1.665c-0.153,0.468-0.36,0.864-0.621,1.188s-0.567,0.586-0.918,0.788 c-0.351,0.201-0.728,0.352-1.13,0.455L483.16,160.955z"></path> <path d="M489.38,155.636c0-0.192,0.054-0.34,0.161-0.445c0.109-0.105,0.253-0.157,0.433-0.157c0.192,0,0.343,0.052,0.45,0.157 s0.162,0.253,0.162,0.445c0,0.174-0.055,0.318-0.162,0.432c-0.107,0.114-0.258,0.171-0.45,0.171c-0.18,0-0.323-0.057-0.433-0.171 C489.434,155.954,489.38,155.81,489.38,155.636z M489.38,159.173c0-0.192,0.054-0.34,0.161-0.445 c0.109-0.105,0.253-0.158,0.433-0.158c0.192,0,0.343,0.053,0.45,0.158s0.162,0.253,0.162,0.445c0,0.174-0.055,0.318-0.162,0.432 s-0.258,0.171-0.45,0.171c-0.18,0-0.323-0.057-0.433-0.171C489.434,159.491,489.38,159.347,489.38,159.173z"></path> <path d="M415.328,170.468v-0.603h1.566v-3.294h-1.566v-0.603h2.277v3.897h1.529v0.603H415.328z M416.643,164.69 c0-0.162,0.054-0.302,0.162-0.418c0.107-0.117,0.246-0.176,0.414-0.176c0.174,0,0.318,0.059,0.436,0.176 c0.117,0.117,0.176,0.256,0.176,0.418c0,0.156-0.059,0.288-0.176,0.396c-0.117,0.108-0.262,0.162-0.436,0.162 c-0.168,0-0.307-0.054-0.414-0.162C416.697,164.978,416.643,164.846,416.643,164.69z"></path> <path d="M420.063,165.968h1.07v-0.891l0.711-0.198v1.089h2.403v0.603h-2.403v2.124c0,0.438,0.106,0.762,0.318,0.972 c0.213,0.21,0.516,0.315,0.911,0.315c0.269,0,0.503-0.051,0.704-0.153c0.2-0.102,0.381-0.213,0.543-0.333l0.232,0.531 c-0.209,0.168-0.46,0.303-0.751,0.405s-0.589,0.153-0.896,0.153c-0.24,0-0.467-0.035-0.68-0.104s-0.4-0.176-0.563-0.32 s-0.291-0.328-0.387-0.553s-0.145-0.494-0.145-0.806v-2.232h-1.07V165.968z"></path> <path d="M429.945,169.901c-0.108,0.096-0.235,0.186-0.383,0.27s-0.308,0.156-0.481,0.216s-0.355,0.106-0.545,0.14 c-0.188,0.033-0.379,0.049-0.571,0.049c-0.36,0-0.678-0.056-0.954-0.167c-0.275-0.111-0.507-0.27-0.693-0.477 c-0.186-0.207-0.326-0.455-0.422-0.742c-0.097-0.288-0.145-0.612-0.145-0.972c0-0.378,0.053-0.714,0.158-1.008 c0.104-0.294,0.256-0.54,0.454-0.738c0.198-0.198,0.438-0.349,0.72-0.455c0.282-0.104,0.598-0.157,0.945-0.157 c0.252,0,0.5,0.033,0.746,0.099c0.246,0.066,0.465,0.19,0.653,0.373c0.188,0.183,0.335,0.436,0.437,0.756s0.138,0.736,0.107,1.247 h-3.474c0,0.54,0.146,0.943,0.436,1.21s0.678,0.4,1.162,0.4c0.161,0,0.321-0.02,0.48-0.059s0.31-0.085,0.453-0.14 c0.144-0.054,0.271-0.114,0.382-0.18c0.11-0.066,0.195-0.126,0.256-0.18L429.945,169.901z M428.049,166.454 c-0.197,0-0.384,0.021-0.561,0.063c-0.176,0.042-0.332,0.113-0.467,0.212c-0.135,0.099-0.244,0.228-0.332,0.387 c-0.086,0.159-0.142,0.355-0.166,0.589h2.791c-0.03-0.396-0.157-0.703-0.382-0.922 C428.709,166.563,428.414,166.454,428.049,166.454z"></path> <path d="M432.942,170.468v-2.997c0-0.126-0.005-0.248-0.014-0.364c-0.01-0.117-0.03-0.222-0.063-0.315 c-0.033-0.093-0.082-0.167-0.145-0.221s-0.146-0.081-0.248-0.081c-0.203,0-0.377,0.084-0.518,0.252s-0.247,0.378-0.318,0.63v3.096 h-0.685v-4.5h0.468l0.135,0.549h0.036c0.06-0.09,0.118-0.175,0.176-0.256c0.057-0.081,0.123-0.151,0.198-0.211 c0.074-0.06,0.163-0.106,0.266-0.14c0.102-0.033,0.23-0.049,0.387-0.049c0.09,0,0.183,0.013,0.279,0.041 c0.096,0.027,0.184,0.069,0.266,0.126c0.08,0.057,0.15,0.133,0.211,0.229s0.1,0.213,0.117,0.351 c0.138-0.234,0.293-0.417,0.463-0.549c0.172-0.132,0.406-0.198,0.707-0.198c0.197,0,0.358,0.033,0.481,0.099 c0.123,0.066,0.219,0.16,0.288,0.283c0.068,0.123,0.117,0.27,0.145,0.441c0.026,0.171,0.039,0.362,0.039,0.572v3.213h-0.684v-3.06 c0-0.126-0.006-0.244-0.018-0.355c-0.012-0.111-0.035-0.208-0.067-0.292c-0.033-0.084-0.078-0.15-0.136-0.198 c-0.057-0.048-0.133-0.072-0.229-0.072c-0.211,0-0.388,0.084-0.531,0.252c-0.145,0.168-0.252,0.408-0.324,0.72v3.006H432.942z"></path> <path d="M439.916,169.253c0-0.192-0.074-0.341-0.225-0.446c-0.149-0.105-0.335-0.189-0.557-0.252 c-0.221-0.063-0.462-0.122-0.722-0.175c-0.261-0.054-0.501-0.126-0.723-0.216c-0.222-0.09-0.407-0.211-0.556-0.364 c-0.15-0.153-0.225-0.368-0.225-0.644c0-0.228,0.049-0.423,0.148-0.585c0.099-0.162,0.229-0.295,0.391-0.4 c0.162-0.105,0.352-0.183,0.568-0.234c0.215-0.051,0.44-0.076,0.674-0.076c0.42,0,0.781,0.053,1.085,0.157 c0.303,0.105,0.544,0.215,0.725,0.329l-0.287,0.567c-0.198-0.108-0.411-0.211-0.642-0.311c-0.23-0.099-0.52-0.148-0.865-0.148 c-0.133,0-0.262,0.014-0.391,0.041c-0.129,0.027-0.246,0.068-0.35,0.122c-0.105,0.054-0.189,0.125-0.252,0.211 c-0.063,0.087-0.094,0.194-0.094,0.32c0,0.156,0.074,0.276,0.225,0.36c0.148,0.084,0.334,0.154,0.556,0.211 s0.462,0.111,0.723,0.162s0.501,0.125,0.722,0.22c0.223,0.096,0.407,0.225,0.557,0.387c0.15,0.162,0.225,0.381,0.225,0.657 c0,0.414-0.164,0.756-0.49,1.026c-0.328,0.27-0.818,0.405-1.472,0.405c-0.198,0-0.394-0.018-0.585-0.054 c-0.192-0.036-0.372-0.084-0.54-0.144s-0.321-0.127-0.459-0.203s-0.252-0.151-0.343-0.229l0.359-0.585 c0.072,0.072,0.168,0.146,0.287,0.22c0.119,0.075,0.252,0.143,0.395,0.203c0.145,0.06,0.299,0.108,0.463,0.144 s0.33,0.054,0.498,0.054c0.162,0,0.313-0.014,0.453-0.041c0.141-0.027,0.265-0.069,0.373-0.126 c0.107-0.057,0.192-0.132,0.256-0.225C439.885,169.498,439.916,169.385,439.916,169.253z"></path> <path d="M442.724,164.168h3.069v0.63h-2.358v7.11h2.358v0.63h-3.069V164.168z"></path> <path d="M447.278,167.318c0-0.51,0.045-0.968,0.136-1.373c0.09-0.405,0.226-0.747,0.405-1.026 c0.181-0.279,0.409-0.492,0.686-0.639c0.277-0.147,0.604-0.221,0.983-0.221c0.403,0,0.744,0.072,1.023,0.216 c0.28,0.144,0.507,0.354,0.681,0.63c0.175,0.276,0.301,0.617,0.379,1.021s0.117,0.869,0.117,1.391c0,0.51-0.045,0.967-0.135,1.373 c-0.091,0.405-0.227,0.747-0.406,1.026s-0.408,0.492-0.686,0.639c-0.276,0.147-0.604,0.22-0.982,0.22 c-0.396,0-0.735-0.08-1.016-0.238c-0.279-0.159-0.508-0.383-0.685-0.67c-0.178-0.288-0.306-0.632-0.384-1.031 S447.278,167.798,447.278,167.318z M448.026,167.318c0,0.15,0.004,0.294,0.013,0.432c0.009,0.138,0.02,0.273,0.032,0.405 l2.682-2.43c-0.103-0.324-0.254-0.582-0.455-0.774c-0.201-0.192-0.473-0.288-0.814-0.288c-0.533,0-0.91,0.221-1.129,0.662 S448.026,166.43,448.026,167.318z M450.942,167.318c0-0.318-0.019-0.621-0.055-0.909l-2.673,2.439 c0.102,0.342,0.255,0.615,0.459,0.819c0.204,0.204,0.471,0.306,0.801,0.306c0.528,0,0.905-0.219,1.13-0.657 S450.942,168.212,450.942,167.318z"></path> <path d="M456.242,172.538h-3.078v-0.63h2.367v-7.11h-2.367v-0.63h3.078V172.538z"></path> <path d="M458.195,166.355h4.177v0.648h-4.177V166.355z M458.195,167.84h4.177v0.648h-4.177V167.84z"></path> <path d="M464.125,169.82h1.414v-4.734l-1.44,1.008l-0.351-0.513l1.979-1.413h0.504v5.652h1.386v0.648h-3.492V169.82z"></path> <path d="M472.891,165.761c0,0.552-0.262,1.167-0.785,1.845c-0.523,0.678-1.254,1.416-2.193,2.214h3.178v0.648h-4.006v-0.648 c0.114-0.108,0.271-0.249,0.469-0.423c0.197-0.174,0.41-0.368,0.639-0.581s0.461-0.442,0.697-0.688 c0.237-0.246,0.451-0.498,0.644-0.756c0.192-0.258,0.349-0.516,0.468-0.774c0.12-0.258,0.18-0.507,0.18-0.747 c0-0.36-0.094-0.644-0.283-0.85c-0.188-0.207-0.473-0.311-0.85-0.311c-0.324,0-0.598,0.036-0.819,0.108 c-0.222,0.072-0.423,0.177-0.603,0.315l-0.307-0.495c0.271-0.192,0.558-0.333,0.861-0.423c0.305-0.09,0.637-0.135,0.997-0.135 c0.565,0,0.993,0.153,1.281,0.459C472.747,164.825,472.891,165.239,472.891,165.761z"></path> </g> </g> <g> <g> <path d="M531.018,158.453c0-0.192-0.075-0.341-0.225-0.446c-0.15-0.105-0.336-0.189-0.557-0.252s-0.463-0.122-0.723-0.175 c-0.26-0.054-0.501-0.126-0.723-0.216c-0.221-0.09-0.406-0.211-0.556-0.364s-0.225-0.368-0.225-0.644 c0-0.228,0.05-0.423,0.149-0.585c0.098-0.162,0.229-0.295,0.391-0.4s0.352-0.183,0.567-0.234c0.216-0.051,0.44-0.076,0.675-0.076 c0.42,0,0.781,0.053,1.084,0.157c0.303,0.105,0.545,0.215,0.725,0.329l-0.287,0.567c-0.197-0.108-0.41-0.211-0.641-0.311 c-0.23-0.099-0.52-0.148-0.866-0.148c-0.132,0-0.262,0.014-0.391,0.041c-0.128,0.027-0.245,0.068-0.35,0.122 c-0.104,0.054-0.188,0.125-0.251,0.211c-0.063,0.087-0.094,0.194-0.094,0.32c0,0.156,0.074,0.276,0.224,0.36 s0.335,0.154,0.556,0.211c0.223,0.057,0.463,0.111,0.723,0.162c0.261,0.051,0.502,0.125,0.723,0.22 c0.222,0.096,0.406,0.225,0.557,0.387c0.149,0.162,0.225,0.381,0.225,0.657c0,0.414-0.164,0.756-0.491,1.026 s-0.817,0.405-1.472,0.405c-0.197,0-0.393-0.018-0.584-0.054c-0.193-0.036-0.373-0.084-0.541-0.144s-0.32-0.127-0.459-0.203 c-0.138-0.075-0.252-0.151-0.342-0.229l0.359-0.585c0.071,0.072,0.168,0.146,0.287,0.22c0.119,0.075,0.251,0.143,0.395,0.203 s0.298,0.108,0.463,0.144c0.164,0.036,0.33,0.054,0.498,0.054c0.161,0,0.313-0.014,0.453-0.041 c0.141-0.027,0.264-0.069,0.372-0.126s0.192-0.132,0.256-0.225C530.986,158.698,531.018,158.585,531.018,158.453z"></path> <path d="M533.555,153.368h1.504v4.788c0,0.366,0.061,0.625,0.184,0.774s0.305,0.225,0.545,0.225c0.168,0,0.328-0.03,0.481-0.09 s0.322-0.162,0.509-0.306l0.324,0.495c-0.098,0.084-0.202,0.159-0.316,0.225c-0.115,0.066-0.232,0.122-0.353,0.167 s-0.241,0.08-0.361,0.104s-0.231,0.036-0.334,0.036c-0.223,0-0.421-0.029-0.596-0.085c-0.175-0.057-0.321-0.149-0.438-0.275 s-0.205-0.292-0.266-0.5s-0.091-0.463-0.091-0.77v-4.185h-0.792V153.368z"></path> <path d="M538.397,157.418c0-0.726,0.189-1.3,0.567-1.724c0.378-0.423,0.918-0.634,1.62-0.634c0.378,0,0.703,0.062,0.977,0.185 c0.272,0.123,0.499,0.29,0.68,0.5c0.18,0.21,0.313,0.459,0.4,0.747c0.086,0.288,0.131,0.597,0.131,0.927 c0,0.36-0.049,0.686-0.145,0.977s-0.237,0.539-0.424,0.743c-0.186,0.204-0.415,0.361-0.688,0.472 c-0.273,0.111-0.584,0.167-0.932,0.167c-0.372,0-0.696-0.062-0.973-0.185c-0.275-0.123-0.504-0.289-0.684-0.5 c-0.18-0.21-0.313-0.459-0.4-0.747C538.441,158.057,538.397,157.748,538.397,157.418z M539.144,157.418 c0,0.21,0.025,0.42,0.077,0.63c0.051,0.21,0.133,0.399,0.246,0.567c0.113,0.168,0.262,0.303,0.444,0.405s0.405,0.153,0.668,0.153 c0.479,0,0.839-0.148,1.081-0.445s0.363-0.733,0.363-1.31c0-0.216-0.025-0.428-0.076-0.634c-0.051-0.207-0.135-0.395-0.251-0.563 s-0.267-0.303-0.448-0.405c-0.184-0.102-0.406-0.153-0.669-0.153c-0.479,0-0.837,0.147-1.077,0.441 C539.264,156.398,539.144,156.836,539.144,157.418z"></path> <path d="M543.563,155.168h1.071v-0.891l0.711-0.198v1.089h2.403v0.603h-2.403v2.124c0,0.438,0.106,0.762,0.318,0.972 s0.516,0.315,0.911,0.315c0.269,0,0.503-0.051,0.703-0.153c0.201-0.102,0.382-0.213,0.543-0.333l0.233,0.531 c-0.21,0.168-0.46,0.303-0.751,0.405s-0.59,0.153-0.896,0.153c-0.24,0-0.467-0.035-0.68-0.104s-0.4-0.176-0.563-0.32 c-0.161-0.144-0.291-0.328-0.387-0.553s-0.144-0.494-0.144-0.806v-2.232h-1.071V155.168z"></path> <path d="M554.299,153.368h1.459v3.726h0.494l1.773-1.926h0.846l-1.988,2.133l1.638,1.764h0.585v0.603h-0.927l-1.927-2.034h-0.494 v2.034h-0.693v-5.697h-0.766V153.368z"></path> <path d="M564.244,159.101c-0.107,0.096-0.235,0.186-0.383,0.27c-0.146,0.084-0.307,0.156-0.48,0.216s-0.355,0.106-0.545,0.14 c-0.189,0.033-0.379,0.049-0.572,0.049c-0.359,0-0.678-0.056-0.953-0.167c-0.276-0.111-0.508-0.27-0.693-0.477 s-0.326-0.455-0.423-0.742c-0.097-0.288-0.144-0.612-0.144-0.972c0-0.378,0.053-0.714,0.157-1.008s0.257-0.54,0.454-0.738 c0.198-0.198,0.438-0.349,0.721-0.455c0.281-0.104,0.597-0.157,0.945-0.157c0.252,0,0.5,0.033,0.746,0.099 c0.246,0.066,0.464,0.19,0.652,0.373c0.189,0.183,0.335,0.436,0.438,0.756c0.102,0.321,0.137,0.736,0.107,1.247h-3.475 c0,0.54,0.146,0.943,0.436,1.21c0.291,0.267,0.678,0.4,1.162,0.4c0.162,0,0.322-0.02,0.48-0.059 c0.159-0.039,0.311-0.085,0.453-0.14c0.145-0.054,0.271-0.114,0.383-0.18c0.109-0.066,0.195-0.126,0.256-0.18L564.244,159.101z M562.35,155.654c-0.197,0-0.385,0.021-0.561,0.063c-0.177,0.042-0.332,0.113-0.467,0.212c-0.135,0.099-0.245,0.228-0.332,0.387 c-0.086,0.159-0.143,0.355-0.166,0.589h2.79c-0.03-0.396-0.157-0.703-0.382-0.922C563.009,155.764,562.715,155.654,562.35,155.654 z"></path> <path d="M568.834,155.861c-0.138-0.048-0.286-0.088-0.445-0.122c-0.158-0.033-0.316-0.049-0.473-0.049 c-0.588,0-1.025,0.138-1.313,0.415s-0.433,0.716-0.433,1.317c0,0.265,0.043,0.501,0.127,0.708s0.203,0.384,0.359,0.528 c0.156,0.145,0.344,0.256,0.563,0.334s0.461,0.117,0.725,0.117c0.281,0,0.557-0.049,0.823-0.146 c0.267-0.097,0.491-0.226,0.671-0.384l0.314,0.522c-0.084,0.072-0.188,0.147-0.314,0.225c-0.126,0.078-0.271,0.151-0.437,0.22 c-0.165,0.069-0.349,0.125-0.55,0.167s-0.418,0.063-0.652,0.063c-0.39,0-0.732-0.056-1.029-0.167 c-0.298-0.111-0.545-0.27-0.743-0.477s-0.349-0.456-0.45-0.747c-0.102-0.291-0.152-0.613-0.152-0.967 c0-0.378,0.052-0.714,0.156-1.008c0.105-0.294,0.258-0.54,0.455-0.738c0.198-0.198,0.438-0.349,0.721-0.455 c0.281-0.104,0.596-0.157,0.944-0.157c0.444,0,0.806,0.039,1.085,0.117c0.279,0.078,0.514,0.166,0.706,0.261l-0.009,0.027v1.251 h-0.648V155.861z"></path> <path d="M574.235,155.861c-0.139-0.048-0.287-0.088-0.445-0.122c-0.159-0.033-0.316-0.049-0.473-0.049 c-0.588,0-1.026,0.138-1.314,0.415c-0.287,0.277-0.432,0.716-0.432,1.317c0,0.265,0.042,0.501,0.126,0.708s0.204,0.384,0.36,0.528 c0.155,0.145,0.343,0.256,0.563,0.334c0.219,0.078,0.46,0.117,0.725,0.117c0.281,0,0.556-0.049,0.822-0.146 c0.268-0.097,0.491-0.226,0.672-0.384l0.314,0.522c-0.084,0.072-0.189,0.147-0.314,0.225c-0.127,0.078-0.272,0.151-0.438,0.22 c-0.164,0.069-0.348,0.125-0.549,0.167s-0.418,0.063-0.652,0.063c-0.391,0-0.733-0.056-1.03-0.167 c-0.298-0.111-0.545-0.27-0.743-0.477c-0.197-0.207-0.348-0.456-0.449-0.747c-0.103-0.291-0.153-0.613-0.153-0.967 c0-0.378,0.052-0.714,0.157-1.008s0.257-0.54,0.455-0.738c0.197-0.198,0.438-0.349,0.72-0.455 c0.282-0.104,0.597-0.157,0.944-0.157c0.444,0,0.807,0.039,1.085,0.117c0.279,0.078,0.515,0.166,0.706,0.261l-0.008,0.027v1.251 h-0.648V155.861z"></path> <path d="M576.656,155.519c0.258-0.15,0.549-0.258,0.873-0.324c0.323-0.066,0.642-0.099,0.954-0.099 c0.306,0,0.557,0.048,0.751,0.144c0.195,0.096,0.349,0.221,0.459,0.374c0.111,0.153,0.187,0.327,0.226,0.522 c0.039,0.195,0.059,0.392,0.059,0.59c0,0.228-0.006,0.471-0.019,0.729s-0.021,0.516-0.026,0.774c0,0.3,0.018,0.585,0.053,0.855 h0.604v0.585H579.4l-0.08-0.675h-0.046c-0.035,0.054-0.09,0.123-0.162,0.207s-0.167,0.167-0.284,0.247 c-0.117,0.081-0.261,0.152-0.429,0.212c-0.168,0.06-0.367,0.09-0.596,0.09c-0.445,0-0.798-0.114-1.057-0.342 c-0.259-0.228-0.389-0.54-0.389-0.936c0-0.306,0.068-0.561,0.203-0.765c0.137-0.204,0.33-0.36,0.583-0.468 c0.253-0.108,0.558-0.171,0.916-0.189s0.761,0.006,1.206,0.072c0.029-0.276,0.033-0.505,0.014-0.688 c-0.021-0.183-0.07-0.329-0.145-0.437c-0.076-0.108-0.182-0.185-0.316-0.229c-0.136-0.045-0.303-0.068-0.502-0.068 c-0.271,0-0.529,0.038-0.776,0.113s-0.466,0.151-0.659,0.229L576.656,155.519z M577.988,159.146c0.167,0,0.323-0.027,0.468-0.081 s0.27-0.123,0.378-0.207s0.198-0.175,0.271-0.274s0.125-0.193,0.162-0.284v-0.63c-0.313-0.054-0.601-0.081-0.865-0.081 c-0.264,0-0.491,0.029-0.684,0.085c-0.191,0.057-0.342,0.146-0.449,0.266c-0.108,0.12-0.162,0.276-0.162,0.468 c0,0.198,0.066,0.37,0.202,0.517C577.443,159.073,577.669,159.146,577.988,159.146z"></path> <path d="M581.299,153.368h1.458v3.726h0.495l1.773-1.926h0.846l-1.989,2.133l1.638,1.764h0.586v0.603h-0.928l-1.926-2.034h-0.495 v2.034h-0.692v-5.697h-0.766V153.368z"></path> <path d="M590.992,154.961c0,0.552-0.262,1.167-0.785,1.845c-0.524,0.678-1.256,1.416-2.194,2.214h3.177v0.648h-4.004v-0.648 c0.113-0.108,0.27-0.249,0.467-0.423c0.199-0.174,0.412-0.368,0.64-0.581s0.46-0.442,0.697-0.688s0.452-0.498,0.644-0.756 c0.191-0.258,0.348-0.516,0.469-0.774c0.119-0.258,0.18-0.507,0.18-0.747c0-0.36-0.095-0.644-0.283-0.85 c-0.189-0.207-0.473-0.311-0.852-0.311c-0.324,0-0.597,0.036-0.818,0.108c-0.223,0.072-0.424,0.177-0.604,0.315l-0.306-0.495 c0.271-0.192,0.558-0.333,0.862-0.423c0.303-0.09,0.635-0.135,0.996-0.135c0.565,0,0.992,0.153,1.281,0.459 C590.848,154.025,590.992,154.439,590.992,154.961z"></path> <path d="M594.188,159.146c0.227,0,0.438-0.028,0.629-0.085c0.192-0.057,0.355-0.144,0.49-0.261 c0.136-0.117,0.24-0.262,0.315-0.437c0.075-0.174,0.112-0.378,0.112-0.612c0-0.432-0.154-0.761-0.463-0.985 c-0.309-0.225-0.73-0.338-1.265-0.338l-0.847,0.045v-3.105h3.097v0.648h-2.421v1.827l0.451-0.018c0.668,0,1.195,0.162,1.58,0.486 c0.386,0.324,0.578,0.786,0.578,1.386c0,0.336-0.059,0.633-0.176,0.891c-0.117,0.258-0.277,0.476-0.482,0.652 c-0.204,0.177-0.446,0.311-0.727,0.401c-0.279,0.09-0.584,0.135-0.915,0.135c-0.181,0-0.353-0.013-0.515-0.041 c-0.162-0.027-0.31-0.06-0.441-0.099c-0.133-0.039-0.248-0.081-0.348-0.126c-0.1-0.045-0.17-0.085-0.212-0.121l0.288-0.585 c0.102,0.06,0.258,0.132,0.468,0.216S593.864,159.146,594.188,159.146z"></path> <path d="M602.143,157.769c0,0.258-0.047,0.507-0.14,0.747c-0.093,0.24-0.229,0.453-0.41,0.639 c-0.181,0.186-0.403,0.336-0.667,0.45c-0.266,0.114-0.572,0.171-0.92,0.171c-0.325,0-0.62-0.051-0.885-0.153 c-0.264-0.102-0.492-0.248-0.686-0.437c-0.191-0.189-0.341-0.421-0.446-0.698c-0.104-0.276-0.157-0.585-0.157-0.927 c0-0.564,0.082-1.098,0.248-1.602c0.165-0.504,0.396-0.948,0.694-1.332c0.298-0.384,0.653-0.696,1.065-0.936 c0.412-0.24,0.864-0.384,1.357-0.432l0.127,0.576c-0.379,0.048-0.725,0.159-1.04,0.333c-0.315,0.174-0.589,0.39-0.823,0.648 c-0.234,0.258-0.425,0.543-0.572,0.855c-0.146,0.312-0.241,0.63-0.283,0.954c0.049-0.078,0.119-0.159,0.212-0.243 c0.093-0.084,0.204-0.157,0.333-0.22s0.273-0.116,0.432-0.158c0.159-0.042,0.332-0.063,0.518-0.063 c0.318,0,0.604,0.043,0.855,0.13c0.252,0.087,0.467,0.21,0.643,0.369c0.178,0.159,0.313,0.351,0.406,0.576 C602.096,157.243,602.143,157.493,602.143,157.769z M601.396,157.841c0-0.42-0.116-0.741-0.35-0.963 c-0.233-0.222-0.593-0.333-1.077-0.333c-0.173,0-0.334,0.021-0.484,0.063c-0.149,0.042-0.283,0.098-0.403,0.167 c-0.12,0.069-0.224,0.148-0.313,0.239c-0.09,0.09-0.159,0.18-0.207,0.27c-0.012,0.084-0.018,0.15-0.018,0.198 c0,0.048,0,0.105,0,0.171c0,0.18,0.029,0.362,0.09,0.544c0.06,0.183,0.15,0.347,0.273,0.491s0.276,0.261,0.462,0.351 c0.185,0.09,0.403,0.135,0.655,0.135c0.203,0,0.389-0.036,0.556-0.108c0.167-0.072,0.313-0.168,0.435-0.288 c0.123-0.12,0.217-0.261,0.283-0.423S601.396,158.021,601.396,157.841z"></path> <path d="M606.571,161.576c-0.402-0.103-0.778-0.254-1.129-0.455c-0.352-0.201-0.657-0.463-0.918-0.788 c-0.262-0.324-0.469-0.72-0.621-1.188c-0.153-0.468-0.229-1.023-0.229-1.665c0-0.636,0.077-1.192,0.233-1.669 s0.366-0.882,0.631-1.215c0.264-0.333,0.57-0.6,0.922-0.801c0.352-0.201,0.722-0.343,1.111-0.427l0.225,0.567 c-0.354,0.102-0.68,0.235-0.975,0.4s-0.551,0.384-0.764,0.657c-0.214,0.273-0.379,0.612-0.497,1.017 c-0.117,0.405-0.176,0.896-0.176,1.472c0,0.582,0.071,1.079,0.212,1.49c0.142,0.411,0.328,0.752,0.561,1.026 c0.231,0.273,0.49,0.486,0.777,0.639c0.285,0.153,0.572,0.26,0.861,0.32L606.571,161.576z"></path> <path d="M612.592,154.961c0,0.552-0.262,1.167-0.785,1.845c-0.524,0.678-1.256,1.416-2.194,2.214h3.177v0.648h-4.004v-0.648 c0.113-0.108,0.27-0.249,0.467-0.423c0.199-0.174,0.412-0.368,0.64-0.581s0.46-0.442,0.697-0.688s0.452-0.498,0.644-0.756 c0.191-0.258,0.348-0.516,0.469-0.774c0.119-0.258,0.18-0.507,0.18-0.747c0-0.36-0.095-0.644-0.283-0.85 c-0.189-0.207-0.473-0.311-0.852-0.311c-0.324,0-0.597,0.036-0.818,0.108c-0.223,0.072-0.424,0.177-0.604,0.315l-0.306-0.495 c0.271-0.192,0.558-0.333,0.862-0.423c0.303-0.09,0.635-0.135,0.996-0.135c0.565,0,0.992,0.153,1.281,0.459 C612.448,154.025,612.592,154.439,612.592,154.961z"></path> <path d="M614.761,160.955c0.289-0.06,0.577-0.167,0.862-0.32c0.287-0.153,0.545-0.366,0.777-0.639 c0.232-0.273,0.419-0.615,0.561-1.026c0.141-0.411,0.212-0.908,0.212-1.49c0-0.576-0.059-1.066-0.177-1.472 c-0.117-0.405-0.282-0.744-0.496-1.017s-0.469-0.492-0.764-0.657s-0.62-0.298-0.976-0.4l0.226-0.567 c0.39,0.084,0.76,0.227,1.111,0.427c0.351,0.201,0.658,0.468,0.922,0.801s0.475,0.738,0.631,1.215 c0.155,0.477,0.233,1.034,0.233,1.669c0,0.642-0.076,1.197-0.229,1.665c-0.152,0.468-0.359,0.864-0.621,1.188 c-0.261,0.324-0.566,0.586-0.918,0.788c-0.351,0.201-0.728,0.352-1.129,0.455L614.761,160.955z"></path> <path d="M619.315,156.302h1.944v-1.989h0.647v1.989h1.944v0.648h-1.944v1.989h-0.647v-1.989h-1.944V156.302z"></path> <path d="M625.426,159.02h1.413v-4.734l-1.44,1.008l-0.351-0.513l1.979-1.413h0.504v5.652h1.387v0.648h-3.492V159.02z"></path> <path d="M631.78,155.636c0-0.192,0.055-0.34,0.162-0.445c0.108-0.105,0.252-0.157,0.432-0.157c0.192,0,0.343,0.052,0.451,0.157 c0.107,0.105,0.162,0.253,0.162,0.445c0,0.174-0.055,0.318-0.162,0.432c-0.108,0.114-0.259,0.171-0.451,0.171 c-0.18,0-0.323-0.057-0.432-0.171C631.834,155.954,631.78,155.81,631.78,155.636z M631.78,159.173c0-0.192,0.055-0.34,0.162-0.445 c0.108-0.105,0.252-0.158,0.432-0.158c0.192,0,0.343,0.053,0.451,0.158c0.107,0.105,0.162,0.253,0.162,0.445 c0,0.174-0.055,0.318-0.162,0.432c-0.108,0.114-0.259,0.171-0.451,0.171c-0.18,0-0.323-0.057-0.432-0.171 C631.834,159.491,631.78,159.347,631.78,159.173z"></path> <path d="M552.328,170.468v-0.603h1.566v-3.294h-1.566v-0.603h2.277v3.897h1.529v0.603H552.328z M553.643,164.69 c0-0.162,0.054-0.302,0.162-0.418c0.107-0.117,0.246-0.176,0.414-0.176c0.174,0,0.318,0.059,0.436,0.176 c0.117,0.117,0.176,0.256,0.176,0.418c0,0.156-0.059,0.288-0.176,0.396c-0.117,0.108-0.262,0.162-0.436,0.162 c-0.168,0-0.307-0.054-0.414-0.162C553.697,164.978,553.643,164.846,553.643,164.69z"></path> <path d="M557.063,165.968h1.07v-0.891l0.711-0.198v1.089h2.403v0.603h-2.403v2.124c0,0.438,0.106,0.762,0.318,0.972 c0.213,0.21,0.516,0.315,0.911,0.315c0.269,0,0.503-0.051,0.704-0.153c0.2-0.102,0.381-0.213,0.543-0.333l0.232,0.531 c-0.209,0.168-0.46,0.303-0.751,0.405s-0.589,0.153-0.896,0.153c-0.24,0-0.467-0.035-0.68-0.104s-0.4-0.176-0.563-0.32 s-0.291-0.328-0.387-0.553s-0.145-0.494-0.145-0.806v-2.232h-1.07V165.968z"></path> <path d="M566.945,169.901c-0.108,0.096-0.235,0.186-0.383,0.27s-0.308,0.156-0.481,0.216s-0.355,0.106-0.545,0.14 c-0.188,0.033-0.379,0.049-0.571,0.049c-0.36,0-0.678-0.056-0.954-0.167c-0.275-0.111-0.507-0.27-0.693-0.477 c-0.186-0.207-0.326-0.455-0.422-0.742c-0.097-0.288-0.145-0.612-0.145-0.972c0-0.378,0.053-0.714,0.158-1.008 c0.104-0.294,0.256-0.54,0.454-0.738c0.198-0.198,0.438-0.349,0.72-0.455c0.282-0.104,0.598-0.157,0.945-0.157 c0.252,0,0.5,0.033,0.746,0.099c0.246,0.066,0.465,0.19,0.653,0.373c0.188,0.183,0.335,0.436,0.437,0.756s0.138,0.736,0.107,1.247 h-3.474c0,0.54,0.146,0.943,0.436,1.21s0.678,0.4,1.162,0.4c0.161,0,0.321-0.02,0.48-0.059s0.31-0.085,0.453-0.14 c0.144-0.054,0.271-0.114,0.382-0.18c0.11-0.066,0.195-0.126,0.256-0.18L566.945,169.901z M565.049,166.454 c-0.197,0-0.384,0.021-0.561,0.063c-0.176,0.042-0.332,0.113-0.467,0.212c-0.135,0.099-0.244,0.228-0.332,0.387 c-0.086,0.159-0.142,0.355-0.166,0.589h2.791c-0.03-0.396-0.157-0.703-0.382-0.922 C565.709,166.563,565.414,166.454,565.049,166.454z"></path> <path d="M569.942,170.468v-2.997c0-0.126-0.005-0.248-0.014-0.364c-0.01-0.117-0.03-0.222-0.063-0.315 c-0.033-0.093-0.082-0.167-0.145-0.221s-0.146-0.081-0.248-0.081c-0.203,0-0.377,0.084-0.518,0.252s-0.247,0.378-0.318,0.63v3.096 h-0.685v-4.5h0.468l0.135,0.549h0.036c0.06-0.09,0.118-0.175,0.176-0.256c0.057-0.081,0.123-0.151,0.198-0.211 c0.074-0.06,0.163-0.106,0.266-0.14c0.102-0.033,0.23-0.049,0.387-0.049c0.09,0,0.183,0.013,0.279,0.041 c0.096,0.027,0.184,0.069,0.266,0.126c0.08,0.057,0.15,0.133,0.211,0.229s0.1,0.213,0.117,0.351 c0.138-0.234,0.293-0.417,0.463-0.549c0.172-0.132,0.406-0.198,0.707-0.198c0.197,0,0.358,0.033,0.481,0.099 c0.123,0.066,0.219,0.16,0.288,0.283c0.068,0.123,0.117,0.27,0.145,0.441c0.026,0.171,0.039,0.362,0.039,0.572v3.213h-0.684v-3.06 c0-0.126-0.006-0.244-0.018-0.355c-0.012-0.111-0.035-0.208-0.067-0.292c-0.033-0.084-0.078-0.15-0.136-0.198 c-0.057-0.048-0.133-0.072-0.229-0.072c-0.211,0-0.388,0.084-0.531,0.252c-0.145,0.168-0.252,0.408-0.324,0.72v3.006H569.942z"></path> <path d="M576.916,169.253c0-0.192-0.074-0.341-0.225-0.446c-0.149-0.105-0.335-0.189-0.557-0.252 c-0.221-0.063-0.462-0.122-0.722-0.175c-0.261-0.054-0.501-0.126-0.723-0.216c-0.222-0.09-0.407-0.211-0.556-0.364 c-0.15-0.153-0.225-0.368-0.225-0.644c0-0.228,0.049-0.423,0.148-0.585c0.099-0.162,0.229-0.295,0.391-0.4 c0.162-0.105,0.352-0.183,0.568-0.234c0.215-0.051,0.44-0.076,0.674-0.076c0.42,0,0.781,0.053,1.085,0.157 c0.303,0.105,0.544,0.215,0.725,0.329l-0.287,0.567c-0.198-0.108-0.411-0.211-0.642-0.311c-0.23-0.099-0.52-0.148-0.865-0.148 c-0.133,0-0.262,0.014-0.391,0.041c-0.129,0.027-0.246,0.068-0.35,0.122c-0.105,0.054-0.189,0.125-0.252,0.211 c-0.063,0.087-0.094,0.194-0.094,0.32c0,0.156,0.074,0.276,0.225,0.36c0.148,0.084,0.334,0.154,0.556,0.211 s0.462,0.111,0.723,0.162s0.501,0.125,0.722,0.22c0.223,0.096,0.407,0.225,0.557,0.387c0.15,0.162,0.225,0.381,0.225,0.657 c0,0.414-0.164,0.756-0.49,1.026c-0.328,0.27-0.818,0.405-1.472,0.405c-0.198,0-0.394-0.018-0.585-0.054 c-0.192-0.036-0.372-0.084-0.54-0.144s-0.321-0.127-0.459-0.203s-0.252-0.151-0.343-0.229l0.359-0.585 c0.072,0.072,0.168,0.146,0.287,0.22c0.119,0.075,0.252,0.143,0.395,0.203c0.145,0.06,0.299,0.108,0.463,0.144 s0.33,0.054,0.498,0.054c0.162,0,0.313-0.014,0.453-0.041c0.141-0.027,0.265-0.069,0.373-0.126 c0.107-0.057,0.192-0.132,0.256-0.225C576.885,169.498,576.916,169.385,576.916,169.253z"></path> <path d="M579.724,164.168h3.069v0.63h-2.358v7.11h2.358v0.63h-3.069V164.168z"></path> <path d="M584.926,169.82h1.413v-4.734l-1.44,1.008l-0.351-0.513l1.979-1.413h0.504v5.652h1.387v0.648h-3.492V169.82z"></path> <path d="M593.242,172.538h-3.078v-0.63h2.367v-7.11h-2.367v-0.63h3.078V172.538z"></path> <path d="M595.195,166.355h4.177v0.648h-4.177V166.355z M595.195,167.84h4.177v0.648h-4.177V167.84z"></path> <path d="M605.211,168.506h-1.215v1.962h-0.711v-1.962h-2.906v-0.522l3.016-3.816h0.602v3.744h1.215V168.506z M603.285,165.293 l-2.078,2.619h2.078V165.293z"></path> <path d="M609.891,165.761c0,0.552-0.262,1.167-0.785,1.845c-0.523,0.678-1.254,1.416-2.193,2.214h3.178v0.648h-4.006v-0.648 c0.114-0.108,0.271-0.249,0.469-0.423c0.197-0.174,0.41-0.368,0.639-0.581s0.461-0.442,0.697-0.688 c0.237-0.246,0.451-0.498,0.644-0.756c0.192-0.258,0.349-0.516,0.468-0.774c0.12-0.258,0.18-0.507,0.18-0.747 c0-0.36-0.094-0.644-0.283-0.85c-0.188-0.207-0.473-0.311-0.85-0.311c-0.324,0-0.598,0.036-0.819,0.108 c-0.222,0.072-0.423,0.177-0.603,0.315l-0.307-0.495c0.271-0.192,0.558-0.333,0.861-0.423c0.305-0.09,0.637-0.135,0.997-0.135 c0.565,0,0.993,0.153,1.281,0.459C609.747,164.825,609.891,165.239,609.891,165.761z"></path> </g> </g> <line fill="none" stroke="#FF5934" stroke-width="2.8347" stroke-miterlimit="10" x1="100.583" y1="133.335" x2="100.583" y2="193.002"></line> <line fill="none" stroke="#FF5934" stroke-width="2.8347" stroke-miterlimit="10" x1="303.251" y1="193.002" x2="303.251" y2="133.335"></line> <line fill="none" stroke="#FF5934" stroke-width="2.8347" stroke-miterlimit="10" x1="195.751" y1="193.002" x2="195.751" y2="133.335"></line> <line fill="none" stroke="#FF5934" stroke-width="2.8347" stroke-miterlimit="10" x1="509.749" y1="133.335" x2="509.749" y2="193.002"></line> <line fill="none" stroke="#FF5934" stroke-width="2.8347" stroke-miterlimit="10" x1="377.751" y1="193.002" x2="377.751" y2="133.335"></line> </svg> 