<svg xmlns="http://www.w3.org/2000/svg" viewBox="0 0 800 600">
  <!-- 背景 -->
  <rect width="800" height="600" fill="#f9f9f9"/>
  
  <!-- 标题 -->
  <text x="400" y="40" font-family="Arial" font-size="24" text-anchor="middle" font-weight="bold">位置编码简单直观解释</text>
  
  <!-- 第一部分：问题陈述 -->
  <g transform="translate(50, 80)">
    <text x="0" y="0" font-family="Arial" font-size="20" font-weight="bold">为什么需要位置编码？</text>
    
    <!-- 问题图示：失去顺序信息的单词 -->
    <rect x="50" y="30" width="80" height="40" fill="#ffcccc" stroke="#333" rx="5"/>
    <text x="90" y="55" font-family="Arial" font-size="16" text-anchor="middle">猫</text>
    
    <rect x="170" y="30" width="80" height="40" fill="#ffcccc" stroke="#333" rx="5"/>
    <text x="210" y="55" font-family="Arial" font-size="16" text-anchor="middle">追</text>
    
    <rect x="290" y="30" width="80" height="40" fill="#ffcccc" stroke="#333" rx="5"/>
    <text x="330" y="55" font-family="Arial" font-size="16" text-anchor="middle">狗</text>
    
    <text x="400" y="55" font-family="Arial" font-size="20" font-weight="bold">≠</text>
    
    <rect x="450" y="30" width="80" height="40" fill="#ffcccc" stroke="#333" rx="5"/>
    <text x="490" y="55" font-family="Arial" font-size="16" text-anchor="middle">狗</text>
    
    <rect x="570" y="30" width="80" height="40" fill="#ffcccc" stroke="#333" rx="5"/>
    <text x="610" y="55" font-family="Arial" font-size="16" text-anchor="middle">追</text>
    
    <rect x="690" y="30" width="80" height="40" fill="#ffcccc" stroke="#333" rx="5"/>
    <text x="730" y="55" font-family="Arial" font-size="16" text-anchor="middle">猫</text>
    
    <text x="350" y="100" font-family="Arial" font-size="16" text-anchor="middle" fill="#666">Transformer模型默认不知道单词的顺序，需要额外告诉它</text>
  </g>
  
  <!-- 第二部分：解决方案 - 简单的编号示例 -->
  <g transform="translate(50, 200)">
    <text x="0" y="0" font-family="Arial" font-size="20" font-weight="bold">解决方案：给每个位置一个独特的"编号"</text>
    
    <!-- 简单的位置编号 -->
    <rect x="50" y="30" width="80" height="70" fill="#ccffcc" stroke="#333" rx="5"/>
    <text x="90" y="55" font-family="Arial" font-size="16" text-anchor="middle">猫</text>
    <line x1="50" y1="70" x2="130" y2="70" stroke="#333" stroke-width="1"/>
    <text x="90" y="90" font-family="Arial" font-size="14" text-anchor="middle">位置: 1</text>
    
    <rect x="170" y="30" width="80" height="70" fill="#ccffcc" stroke="#333" rx="5"/>
    <text x="210" y="55" font-family="Arial" font-size="16" text-anchor="middle">追</text>
    <line x1="170" y1="70" x2="250" y2="70" stroke="#333" stroke-width="1"/>
    <text x="210" y="90" font-family="Arial" font-size="14" text-anchor="middle">位置: 2</text>
    
    <rect x="290" y="30" width="80" height="70" fill="#ccffcc" stroke="#333" rx="5"/>
    <text x="330" y="55" font-family="Arial" font-size="16" text-anchor="middle">狗</text>
    <line x1="290" y1="70" x2="370" y2="70" stroke="#333" stroke-width="1"/>
    <text x="330" y="90" font-family="Arial" font-size="14" text-anchor="middle">位置: 3</text>
    
    <text x="350" y="130" font-family="Arial" font-size="16" text-anchor="middle" fill="#666">但如何把位置信息转换成计算机能理解的数字向量？</text>
  </g>
  
  <!-- 第三部分：位置编码的直觉理解 -->
  <g transform="translate(50, 350)">
    <text x="0" y="0" font-family="Arial" font-size="20" font-weight="bold">位置编码：用"唯一指纹"代表位置</text>
    
    <!-- 位置向量的具体例子 -->
    <rect x="50" y="30" width="200" height="80" fill="#cceeff" stroke="#333" rx="5"/>
    <text x="150" y="55" font-family="Arial" font-size="16" text-anchor="middle">位置1的指纹</text>
    <text x="150" y="85" font-family="Arial" font-size="14" text-anchor="middle">[0.84, 0.54, 0.87, 0.49, ...]</text>
    
    <rect x="300" y="30" width="200" height="80" fill="#cceeff" stroke="#333" rx="5"/>
    <text x="400" y="55" font-family="Arial" font-size="16" text-anchor="middle">位置2的指纹</text>
    <text x="400" y="85" font-family="Arial" font-size="14" text-anchor="middle">[0.90, 0.41, 0.76, 0.63, ...]</text>
    
    <rect x="550" y="30" width="200" height="80" fill="#cceeff" stroke="#333" rx="5"/>
    <text x="650" y="55" font-family="Arial" font-size="16" text-anchor="middle">位置3的指纹</text>
    <text x="650" y="85" font-family="Arial" font-size="14" text-anchor="middle">[0.95, 0.28, 0.59, 0.75, ...]</text>
    
    <!-- 关键特性 -->
    <rect x="50" y="140" width="200" height="80" fill="#ffffcc" stroke="#333" rx="5"/>
    <text x="150" y="165" font-family="Arial" font-size="16" text-anchor="middle" font-weight="bold">特性1：唯一性</text>
    <text x="150" y="190" font-family="Arial" font-size="14" text-anchor="middle">每个位置有独特的编码</text>
    
    <rect x="300" y="140" width="200" height="80" fill="#ffffcc" stroke="#333" rx="5"/>
    <text x="400" y="165" font-family="Arial" font-size="16" text-anchor="middle" font-weight="bold">特性2：平滑过渡</text>
    <text x="400" y="190" font-family="Arial" font-size="14" text-anchor="middle">相近位置有相似的编码</text>
    
    <rect x="550" y="140" width="200" height="80" fill="#ffffcc" stroke="#333" rx="5"/>
    <text x="650" y="165" font-family="Arial" font-size="16" text-anchor="middle" font-weight="bold">特性3：可预测</text>
    <text x="650" y="190" font-family="Arial" font-size="14" text-anchor="middle">用公式生成而非随机值</text>
  </g>
</svg>
